<svg width="136" height="32" viewBox="0 0 136 32" fill="none" xmlns="http://www.w3.org/2000/svg">
<path fill-rule="evenodd" clip-rule="evenodd" d="M0.93335 15.9999C10.2557 15.9999 15.6 10.6557 15.6 1.33325C15.6 10.6557 20.9443 15.9999 30.2667 15.9999C20.9443 15.9999 15.6 21.3442 15.6 30.6666C15.6 21.3442 10.2557 15.9999 0.93335 15.9999Z" fill="#5F6766"/>
<path d="M36.06 22.606L41.18 8.60597H44.06L49.18 22.606H46.46L45.34 19.366H39.88L38.74 22.606H36.06ZM40.58 17.366H44.64L42.6 11.546L40.58 17.366Z" fill="#5F6766"/>
<path d="M54.3147 22.846C53.3014 22.846 52.408 22.626 51.6347 22.186C50.8614 21.746 50.248 21.1326 49.7947 20.346C49.3547 19.5593 49.1347 18.6593 49.1347 17.646C49.1347 16.6326 49.3547 15.7326 49.7947 14.946C50.248 14.1593 50.8614 13.546 51.6347 13.106C52.408 12.666 53.3014 12.446 54.3147 12.446C55.5814 12.446 56.648 12.7793 57.5147 13.446C58.3814 14.0993 58.9347 15.006 59.1747 16.166H56.4747C56.3414 15.686 56.0747 15.3126 55.6747 15.046C55.288 14.766 54.828 14.626 54.2947 14.626C53.588 14.626 52.988 14.8926 52.4947 15.426C52.0014 15.9593 51.7547 16.6993 51.7547 17.646C51.7547 18.5926 52.0014 19.3326 52.4947 19.866C52.988 20.3993 53.588 20.666 54.2947 20.666C54.828 20.666 55.288 20.5326 55.6747 20.266C56.0747 19.9993 56.3414 19.6193 56.4747 19.126H59.1747C58.9347 20.246 58.3814 21.146 57.5147 21.826C56.648 22.506 55.5814 22.846 54.3147 22.846Z" fill="#5F6766"/>
<path d="M60.4469 22.606V12.686H62.7069L62.9269 14.026C63.2469 13.546 63.6669 13.166 64.1869 12.886C64.7202 12.5926 65.3336 12.446 66.0269 12.446C67.5602 12.446 68.6469 13.0393 69.2869 14.226C69.6469 13.6793 70.1269 13.246 70.7269 12.926C71.3402 12.606 72.0069 12.446 72.7269 12.446C74.0202 12.446 75.0136 12.8326 75.7069 13.606C76.4002 14.3793 76.7469 15.5126 76.7469 17.006V22.606H74.1869V17.246C74.1869 16.3926 74.0202 15.7393 73.6869 15.286C73.3669 14.8326 72.8669 14.606 72.1869 14.606C71.4936 14.606 70.9336 14.8593 70.5069 15.366C70.0936 15.8726 69.8869 16.5793 69.8869 17.486V22.606H67.3269V17.246C67.3269 16.3926 67.1602 15.7393 66.8269 15.286C66.4936 14.8326 65.9802 14.606 65.2869 14.606C64.6069 14.606 64.0536 14.8593 63.6269 15.366C63.2136 15.8726 63.0069 16.5793 63.0069 17.486V22.606H60.4469Z" fill="#5F6766"/>
<path d="M82.9974 22.846C81.9974 22.846 81.1107 22.6326 80.3374 22.206C79.564 21.7793 78.9574 21.1793 78.5174 20.406C78.0774 19.6326 77.8574 18.7393 77.8574 17.726C77.8574 16.6993 78.0707 15.786 78.4974 14.986C78.9374 14.186 79.5374 13.566 80.2974 13.126C81.0707 12.6726 81.9774 12.446 83.0174 12.446C83.9907 12.446 84.8507 12.6593 85.5974 13.086C86.344 13.5126 86.924 14.0993 87.3374 14.846C87.764 15.5793 87.9774 16.3993 87.9774 17.306C87.9774 17.4526 87.9707 17.606 87.9574 17.766C87.9574 17.926 87.9507 18.0926 87.9374 18.266H80.3974C80.4507 19.0393 80.7174 19.646 81.1974 20.086C81.6907 20.526 82.284 20.746 82.9774 20.746C83.4974 20.746 83.9307 20.6326 84.2774 20.406C84.6374 20.166 84.904 19.8593 85.0774 19.486H87.6774C87.4907 20.1126 87.1774 20.686 86.7374 21.206C86.3107 21.7126 85.7774 22.1126 85.1374 22.406C84.5107 22.6993 83.7974 22.846 82.9974 22.846ZM83.0174 14.526C82.3907 14.526 81.8374 14.706 81.3574 15.066C80.8774 15.4126 80.5707 15.946 80.4374 16.666H85.3774C85.3374 16.0126 85.0974 15.4926 84.6574 15.106C84.2174 14.7193 83.6707 14.526 83.0174 14.526Z" fill="#5F6766"/>
<path d="M99.2961 22.846C97.8828 22.846 96.6695 22.546 95.6561 21.946C94.6428 21.3326 93.8628 20.486 93.3161 19.406C92.7694 18.3126 92.4961 17.0526 92.4961 15.626C92.4961 14.1993 92.7694 12.9393 93.3161 11.846C93.8628 10.7526 94.6428 9.8993 95.6561 9.28597C96.6695 8.67263 97.8828 8.36597 99.2961 8.36597C100.976 8.36597 102.349 8.78597 103.416 9.62597C104.496 10.4526 105.169 11.6193 105.436 13.126H102.616C102.443 12.366 102.069 11.7726 101.496 11.346C100.936 10.906 100.189 10.686 99.2561 10.686C97.9628 10.686 96.9494 11.126 96.2161 12.006C95.4828 12.886 95.1161 14.0926 95.1161 15.626C95.1161 17.1593 95.4828 18.366 96.2161 19.246C96.9494 20.1126 97.9628 20.546 99.2561 20.546C100.189 20.546 100.936 20.346 101.496 19.946C102.069 19.5326 102.443 18.966 102.616 18.246H105.436C105.169 19.686 104.496 20.8126 103.416 21.626C102.349 22.4393 100.976 22.846 99.2961 22.846Z" fill="#5F6766"/>
<path d="M111.402 22.846C110.442 22.846 109.576 22.626 108.802 22.186C108.042 21.746 107.436 21.1393 106.982 20.366C106.542 19.5793 106.322 18.6726 106.322 17.646C106.322 16.6193 106.549 15.7193 107.002 14.946C107.456 14.1593 108.062 13.546 108.822 13.106C109.596 12.666 110.462 12.446 111.422 12.446C112.369 12.446 113.222 12.666 113.982 13.106C114.756 13.546 115.362 14.1593 115.802 14.946C116.256 15.7193 116.482 16.6193 116.482 17.646C116.482 18.6726 116.256 19.5793 115.802 20.366C115.362 21.1393 114.756 21.746 113.982 22.186C113.209 22.626 112.349 22.846 111.402 22.846ZM111.402 20.626C112.069 20.626 112.649 20.3793 113.142 19.886C113.636 19.3793 113.882 18.6326 113.882 17.646C113.882 16.6593 113.636 15.9193 113.142 15.426C112.649 14.9193 112.076 14.666 111.422 14.666C110.742 14.666 110.156 14.9193 109.662 15.426C109.182 15.9193 108.942 16.6593 108.942 17.646C108.942 18.6326 109.182 19.3793 109.662 19.886C110.156 20.3793 110.736 20.626 111.402 20.626Z" fill="#5F6766"/>
<path d="M117.771 22.606V12.686H120.051L120.291 14.546C120.651 13.906 121.138 13.3993 121.751 13.026C122.378 12.6393 123.111 12.446 123.951 12.446V15.146H123.231C122.671 15.146 122.171 15.2326 121.731 15.406C121.291 15.5793 120.944 15.8793 120.691 16.306C120.451 16.7326 120.331 17.326 120.331 18.086V22.606H117.771Z" fill="#5F6766"/>
<path d="M124.701 27.006V12.686H126.981L127.261 14.106C127.581 13.666 128.001 13.2793 128.521 12.946C129.054 12.6126 129.741 12.446 130.581 12.446C131.514 12.446 132.347 12.6726 133.081 13.126C133.814 13.5793 134.394 14.1993 134.821 14.986C135.247 15.7726 135.461 16.666 135.461 17.666C135.461 18.666 135.247 19.5593 134.821 20.346C134.394 21.1193 133.814 21.7326 133.081 22.186C132.347 22.626 131.514 22.846 130.581 22.846C129.834 22.846 129.181 22.706 128.621 22.426C128.061 22.146 127.607 21.7526 127.261 21.246V27.006H124.701ZM130.041 20.606C130.854 20.606 131.527 20.3326 132.061 19.786C132.594 19.2393 132.861 18.5326 132.861 17.666C132.861 16.7993 132.594 16.086 132.061 15.526C131.527 14.966 130.854 14.686 130.041 14.686C129.214 14.686 128.534 14.966 128.001 15.526C127.481 16.0726 127.221 16.7793 127.221 17.646C127.221 18.5126 127.481 19.226 128.001 19.786C128.534 20.3326 129.214 20.606 130.041 20.606Z" fill="#5F6766"/>
</svg>
