<svg width="48" height="48" viewBox="0 0 48 48" fill="none" xmlns="http://www.w3.org/2000/svg">
<g clip-path="url(#clip0_73_3076)">
<path d="M0 16C0 7.16344 7.16344 0 16 0H32C40.8366 0 48 7.16344 48 16V32C48 40.8366 40.8366 48 32 48H16C7.16344 48 0 40.8366 0 32V16Z" fill="#F4F6F6"/>
<g filter="url(#filter0_d_73_3076)">
<path d="M4.7998 16.8C4.7998 10.1726 10.1724 4.80005 16.7998 4.80005H31.1998C37.8272 4.80005 43.1998 10.1726 43.1998 16.8V31.2001C43.1998 37.8275 37.8272 43.2001 31.1998 43.2001H16.7998C10.1724 43.2001 4.7998 37.8275 4.7998 31.2V16.8Z" fill="#0A5042"/>
<path d="M27.7498 22.3125H32.2498C32.5979 22.3125 32.9317 22.1742 33.1779 21.9281C33.424 21.6819 33.5623 21.3481 33.5623 21V16.5C33.5623 16.1519 33.424 15.8181 33.1779 15.5719C32.9317 15.3258 32.5979 15.1875 32.2498 15.1875H27.7498C27.4017 15.1875 27.0679 15.3258 26.8217 15.5719C26.5756 15.8181 26.4373 16.1519 26.4373 16.5V18.1875H25.4998C24.7539 18.1875 24.0385 18.4838 23.5111 19.0113C22.9836 19.5387 22.6873 20.2541 22.6873 21V23.4375H19.3123V22.5C19.3123 22.1519 19.174 21.8181 18.9279 21.5719C18.6817 21.3258 18.3479 21.1875 17.9998 21.1875H14.9998C14.6517 21.1875 14.3179 21.3258 14.0717 21.5719C13.8256 21.8181 13.6873 22.1519 13.6873 22.5V25.5C13.6873 25.8481 13.8256 26.1819 14.0717 26.4281C14.3179 26.6742 14.6517 26.8125 14.9998 26.8125H17.9998C18.3479 26.8125 18.6817 26.6742 18.9279 26.4281C19.174 26.1819 19.3123 25.8481 19.3123 25.5V24.5625H22.6873V27C22.6873 27.7459 22.9836 28.4613 23.5111 28.9887C24.0385 29.5162 24.7539 29.8125 25.4998 29.8125H26.4373V31.5C26.4373 31.8481 26.5756 32.1819 26.8217 32.4281C27.0679 32.6742 27.4017 32.8125 27.7498 32.8125H32.2498C32.5979 32.8125 32.9317 32.6742 33.1779 32.4281C33.424 32.1819 33.5623 31.8481 33.5623 31.5V27C33.5623 26.6519 33.424 26.3181 33.1779 26.0719C32.9317 25.8258 32.5979 25.6875 32.2498 25.6875H27.7498C27.4017 25.6875 27.0679 25.8258 26.8217 26.0719C26.5756 26.3181 26.4373 26.6519 26.4373 27V28.6875H25.4998C25.0522 28.6875 24.623 28.5097 24.3066 28.1932C23.9901 27.8768 23.8123 27.4476 23.8123 27V21C23.8123 20.5524 23.9901 20.1232 24.3066 19.8068C24.623 19.4903 25.0522 19.3125 25.4998 19.3125H26.4373V21C26.4373 21.3481 26.5756 21.6819 26.8217 21.9281C27.0679 22.1742 27.4017 22.3125 27.7498 22.3125ZM18.1873 25.5C18.1873 25.5497 18.1675 25.5974 18.1324 25.6326C18.0972 25.6677 18.0495 25.6875 17.9998 25.6875H14.9998C14.9501 25.6875 14.9024 25.6677 14.8672 25.6326C14.8321 25.5974 14.8123 25.5497 14.8123 25.5V22.5C14.8123 22.4503 14.8321 22.4026 14.8672 22.3674C14.9024 22.3323 14.9501 22.3125 14.9998 22.3125H17.9998C18.0495 22.3125 18.0972 22.3323 18.1324 22.3674C18.1675 22.4026 18.1873 22.4503 18.1873 22.5V25.5ZM27.5623 27C27.5623 26.9503 27.5821 26.9026 27.6172 26.8674C27.6524 26.8323 27.7001 26.8125 27.7498 26.8125H32.2498C32.2995 26.8125 32.3472 26.8323 32.3824 26.8674C32.4175 26.9026 32.4373 26.9503 32.4373 27V31.5C32.4373 31.5497 32.4175 31.5974 32.3824 31.6326C32.3472 31.6677 32.2995 31.6875 32.2498 31.6875H27.7498C27.7001 31.6875 27.6524 31.6677 27.6172 31.6326C27.5821 31.5974 27.5623 31.5497 27.5623 31.5V27ZM27.5623 16.5C27.5623 16.4503 27.5821 16.4026 27.6172 16.3674C27.6524 16.3323 27.7001 16.3125 27.7498 16.3125H32.2498C32.2995 16.3125 32.3472 16.3323 32.3824 16.3674C32.4175 16.4026 32.4373 16.4503 32.4373 16.5V21C32.4373 21.0497 32.4175 21.0974 32.3824 21.1326C32.3472 21.1677 32.2995 21.1875 32.2498 21.1875H27.7498C27.7001 21.1875 27.6524 21.1677 27.6172 21.1326C27.5821 21.0974 27.5623 21.0497 27.5623 21V16.5Z" fill="#F4F6F6"/>
</g>
</g>
<path d="M0.25 16C0.25 7.30151 7.30152 0.25 16 0.25H32C40.6985 0.25 47.75 7.30152 47.75 16V32C47.75 40.6985 40.6985 47.75 32 47.75H16C7.30151 47.75 0.25 40.6985 0.25 32V16Z" stroke="#C5C9C8" stroke-width="0.5"/>
<defs>
<filter id="filter0_d_73_3076" x="0.799805" y="4.80005" width="46.4" height="46.4" filterUnits="userSpaceOnUse" color-interpolation-filters="sRGB">
<feFlood flood-opacity="0" result="BackgroundImageFix"/>
<feColorMatrix in="SourceAlpha" type="matrix" values="0 0 0 0 0 0 0 0 0 0 0 0 0 0 0 0 0 0 127 0" result="hardAlpha"/>
<feOffset dy="4"/>
<feGaussianBlur stdDeviation="2"/>
<feComposite in2="hardAlpha" operator="out"/>
<feColorMatrix type="matrix" values="0 0 0 0 0.0156863 0 0 0 0 0.12549 0 0 0 0 0.101961 0 0 0 0.25 0"/>
<feBlend mode="normal" in2="BackgroundImageFix" result="effect1_dropShadow_73_3076"/>
<feBlend mode="normal" in="SourceGraphic" in2="effect1_dropShadow_73_3076" result="shape"/>
</filter>
<clipPath id="clip0_73_3076">
<path d="M0 16C0 7.16344 7.16344 0 16 0H32C40.8366 0 48 7.16344 48 16V32C48 40.8366 40.8366 48 32 48H16C7.16344 48 0 40.8366 0 32V16Z" fill="white"/>
</clipPath>
</defs>
</svg>
