<svg width="48" height="48" viewBox="0 0 48 48" fill="none" xmlns="http://www.w3.org/2000/svg">
<g clip-path="url(#clip0_73_2603)">
<path d="M0 16C0 7.16344 7.16344 0 16 0H32C40.8366 0 48 7.16344 48 16V32C48 40.8366 40.8366 48 32 48H16C7.16344 48 0 40.8366 0 32V16Z" fill="#F4F6F6"/>
<g filter="url(#filter0_d_73_2603)">
<path d="M4.7998 16.8C4.7998 10.1726 10.1724 4.80005 16.7998 4.80005H31.1998C37.8272 4.80005 43.1998 10.1726 43.1998 16.8V31.2001C43.1998 37.8275 37.8272 43.2001 31.1998 43.2001H16.7998C10.1724 43.2001 4.7998 37.8275 4.7998 31.2V16.8Z" fill="#0A5042"/>
<path d="M32.9998 30.9375H32.0623V15.75C32.0623 15.6008 32.0031 15.4577 31.8976 15.3523C31.7921 15.2468 31.649 15.1875 31.4998 15.1875H26.2498C26.1006 15.1875 25.9576 15.2468 25.8521 15.3523C25.7466 15.4577 25.6873 15.6008 25.6873 15.75V19.6875H20.9998C20.8506 19.6875 20.7076 19.7468 20.6021 19.8523C20.4966 19.9577 20.4373 20.1008 20.4373 20.25V24.1875H16.4998C16.3506 24.1875 16.2076 24.2468 16.1021 24.3523C15.9966 24.4577 15.9373 24.6008 15.9373 24.75V30.9375H14.9998C14.8506 30.9375 14.7076 30.9968 14.6021 31.1023C14.4966 31.2077 14.4373 31.3508 14.4373 31.5C14.4373 31.6492 14.4966 31.7923 14.6021 31.8977C14.7076 32.0032 14.8506 32.0625 14.9998 32.0625H32.9998C33.149 32.0625 33.2921 32.0032 33.3976 31.8977C33.5031 31.7923 33.5623 31.6492 33.5623 31.5C33.5623 31.3508 33.5031 31.2077 33.3976 31.1023C33.2921 30.9968 33.149 30.9375 32.9998 30.9375ZM26.8123 16.3125H30.9373V30.9375H26.8123V16.3125ZM21.5623 20.8125H25.6873V30.9375H21.5623V20.8125ZM17.0623 25.3125H20.4373V30.9375H17.0623V25.3125Z" fill="#F4F6F6"/>
</g>
</g>
<path d="M0.25 16C0.25 7.30151 7.30152 0.25 16 0.25H32C40.6985 0.25 47.75 7.30152 47.75 16V32C47.75 40.6985 40.6985 47.75 32 47.75H16C7.30151 47.75 0.25 40.6985 0.25 32V16Z" stroke="#C5C9C8" stroke-width="0.5"/>
<defs>
<filter id="filter0_d_73_2603" x="0.799805" y="4.80005" width="46.4" height="46.4" filterUnits="userSpaceOnUse" color-interpolation-filters="sRGB">
<feFlood flood-opacity="0" result="BackgroundImageFix"/>
<feColorMatrix in="SourceAlpha" type="matrix" values="0 0 0 0 0 0 0 0 0 0 0 0 0 0 0 0 0 0 127 0" result="hardAlpha"/>
<feOffset dy="4"/>
<feGaussianBlur stdDeviation="2"/>
<feComposite in2="hardAlpha" operator="out"/>
<feColorMatrix type="matrix" values="0 0 0 0 0.0156863 0 0 0 0 0.12549 0 0 0 0 0.101961 0 0 0 0.25 0"/>
<feBlend mode="normal" in2="BackgroundImageFix" result="effect1_dropShadow_73_2603"/>
<feBlend mode="normal" in="SourceGraphic" in2="effect1_dropShadow_73_2603" result="shape"/>
</filter>
<clipPath id="clip0_73_2603">
<path d="M0 16C0 7.16344 7.16344 0 16 0H32C40.8366 0 48 7.16344 48 16V32C48 40.8366 40.8366 48 32 48H16C7.16344 48 0 40.8366 0 32V16Z" fill="white"/>
</clipPath>
</defs>
</svg>
