<svg width="48" height="48" viewBox="0 0 48 48" fill="none" xmlns="http://www.w3.org/2000/svg">
<g clip-path="url(#clip0_73_1710)">
<path d="M0 16C0 7.16344 7.16344 0 16 0H32C40.8366 0 48 7.16344 48 16V32C48 40.8366 40.8366 48 32 48H16C7.16344 48 0 40.8366 0 32V16Z" fill="#F4F6F6"/>
<g filter="url(#filter0_d_73_1710)">
<path d="M4.7998 16.8C4.7998 10.1726 10.1724 4.80005 16.7998 4.80005H31.1998C37.8272 4.80005 43.1998 10.1726 43.1998 16.8V31.2001C43.1998 37.8275 37.8272 43.2001 31.1998 43.2001H16.7998C10.1724 43.2001 4.7998 37.8275 4.7998 31.2V16.8Z" fill="#0A5042"/>
<path d="M21.5623 22.2656V15.5156C21.5623 15.4256 21.5408 15.3369 21.4994 15.2569C21.4581 15.177 21.3982 15.1081 21.3247 15.0561C21.2512 15.0041 21.1663 14.9706 21.0771 14.9582C20.988 14.9458 20.8972 14.955 20.8123 14.985C18.6648 15.7441 16.8588 17.2448 15.7193 19.2169C14.5799 21.1891 14.1817 23.5032 14.5967 25.7428C14.613 25.8314 14.6503 25.9147 14.7055 25.9859C14.7608 26.057 14.8323 26.1139 14.914 26.1516C14.9958 26.1894 15.0854 26.207 15.1754 26.2029C15.2654 26.1988 15.353 26.1731 15.431 26.1281L21.281 22.7531C21.3666 22.7037 21.4377 22.6327 21.487 22.5471C21.5364 22.4615 21.5624 22.3644 21.5623 22.2656ZM20.4373 21.9375L15.5942 24.7312C15.5729 24.4881 15.5623 24.2444 15.5623 24C15.5635 22.3936 16.0228 20.8208 16.8862 19.4661C17.7497 18.1115 18.9816 17.0312 20.4373 16.3519V21.9375ZM32.3032 19.2609C32.2957 19.2459 32.2882 19.2309 32.2798 19.2169C32.2725 19.2031 32.264 19.1899 32.2545 19.1775C31.4123 17.7354 30.2071 16.539 28.7588 15.7074C27.3106 14.8758 25.6698 14.438 23.9998 14.4375C23.8506 14.4375 23.7075 14.4968 23.602 14.6023C23.4966 14.7077 23.4373 14.8508 23.4373 15V23.7187L15.956 28.0744C15.8921 28.1117 15.8362 28.1612 15.7915 28.2201C15.7468 28.2791 15.7141 28.3463 15.6954 28.4179C15.6766 28.4894 15.6722 28.564 15.6824 28.6373C15.6925 28.7106 15.717 28.7812 15.7545 28.845C16.8176 30.6549 18.4467 32.0648 20.3905 32.857C22.3343 33.6493 24.4848 33.78 26.5102 33.2289C28.5357 32.6779 30.3235 31.4757 31.598 29.8078C32.8724 28.1399 33.5627 26.0991 33.5623 24C33.5642 22.3374 33.1301 20.7034 32.3032 19.2609ZM24.5623 15.5812C25.8502 15.6678 27.101 16.0487 28.2186 16.6946C29.3361 17.3405 30.2906 18.2342 31.0085 19.3069L24.5623 23.0625V15.5812ZM23.9998 32.4375C22.6259 32.4338 21.2735 32.0965 20.0589 31.4546C18.8442 30.8126 17.8036 29.8852 17.0267 28.7522L24.2745 24.5334L24.2904 24.5241L31.572 20.2828C32.2032 21.569 32.4965 22.9947 32.4242 24.4256C32.3519 25.8565 31.9165 27.2454 31.1589 28.4615C30.4013 29.6775 29.3466 30.6806 28.094 31.3763C26.8415 32.0719 25.4325 32.4371 23.9998 32.4375Z" fill="#F4F6F6"/>
</g>
</g>
<path d="M0.25 16C0.25 7.30151 7.30152 0.25 16 0.25H32C40.6985 0.25 47.75 7.30152 47.75 16V32C47.75 40.6985 40.6985 47.75 32 47.75H16C7.30151 47.75 0.25 40.6985 0.25 32V16Z" stroke="#C5C9C8" stroke-width="0.5"/>
<defs>
<filter id="filter0_d_73_1710" x="0.799805" y="4.80005" width="46.4" height="46.4" filterUnits="userSpaceOnUse" color-interpolation-filters="sRGB">
<feFlood flood-opacity="0" result="BackgroundImageFix"/>
<feColorMatrix in="SourceAlpha" type="matrix" values="0 0 0 0 0 0 0 0 0 0 0 0 0 0 0 0 0 0 127 0" result="hardAlpha"/>
<feOffset dy="4"/>
<feGaussianBlur stdDeviation="2"/>
<feComposite in2="hardAlpha" operator="out"/>
<feColorMatrix type="matrix" values="0 0 0 0 0.0156863 0 0 0 0 0.12549 0 0 0 0 0.101961 0 0 0 0.25 0"/>
<feBlend mode="normal" in2="BackgroundImageFix" result="effect1_dropShadow_73_1710"/>
<feBlend mode="normal" in="SourceGraphic" in2="effect1_dropShadow_73_1710" result="shape"/>
</filter>
<clipPath id="clip0_73_1710">
<path d="M0 16C0 7.16344 7.16344 0 16 0H32C40.8366 0 48 7.16344 48 16V32C48 40.8366 40.8366 48 32 48H16C7.16344 48 0 40.8366 0 32V16Z" fill="white"/>
</clipPath>
</defs>
</svg>
