<svg width="48" height="48" viewBox="0 0 48 48" fill="none" xmlns="http://www.w3.org/2000/svg">
<g clip-path="url(#clip0_73_3048)">
<path d="M0 16C0 7.16344 7.16344 0 16 0H32C40.8366 0 48 7.16344 48 16V32C48 40.8366 40.8366 48 32 48H16C7.16344 48 0 40.8366 0 32V16Z" fill="#F4F6F6"/>
<g filter="url(#filter0_d_73_3048)">
<path d="M4.7998 16.8C4.7998 10.1726 10.1724 4.80005 16.7998 4.80005H31.1998C37.8272 4.80005 43.1998 10.1726 43.1998 16.8V31.2001C43.1998 37.8275 37.8272 43.2001 31.1998 43.2001H16.7998C10.1724 43.2001 4.7998 37.8275 4.7998 31.2V16.8Z" fill="#0A5042"/>
<path d="M34.2532 31.9988L29.0032 21.4988C28.9566 21.4051 28.8848 21.3264 28.7958 21.2714C28.7069 21.2163 28.6044 21.1872 28.4998 21.1872C28.3952 21.1872 28.2927 21.2163 28.2038 21.2714C28.1148 21.3264 28.043 21.4051 27.9964 21.4988L25.9057 25.68C24.1585 25.6075 22.4769 24.9939 21.0936 23.9241C22.7017 22.2794 23.6613 20.1089 23.7954 17.8125H26.2498C26.399 17.8125 26.5421 17.7532 26.6475 17.6477C26.753 17.5423 26.8123 17.3992 26.8123 17.25C26.8123 17.1008 26.753 16.9577 26.6475 16.8523C26.5421 16.7468 26.399 16.6875 26.2498 16.6875H20.8123V15C20.8123 14.8508 20.753 14.7077 20.6475 14.6023C20.5421 14.4968 20.399 14.4375 20.2498 14.4375C20.1006 14.4375 19.9575 14.4968 19.8521 14.6023C19.7466 14.7077 19.6873 14.8508 19.6873 15V16.6875H14.2498C14.1006 16.6875 13.9575 16.7468 13.8521 16.8523C13.7466 16.9577 13.6873 17.1008 13.6873 17.25C13.6873 17.3992 13.7466 17.5423 13.8521 17.6477C13.9575 17.7532 14.1006 17.8125 14.2498 17.8125H22.6676C22.5341 19.8337 21.6756 21.7389 20.2498 23.1778C19.3753 22.2965 18.7065 21.2326 18.2914 20.0625C18.2681 19.9912 18.2307 19.9253 18.1816 19.8686C18.1324 19.8119 18.0725 19.7657 18.0052 19.7326C17.9379 19.6994 17.8646 19.6801 17.7897 19.6757C17.7149 19.6713 17.6398 19.6819 17.5691 19.7069C17.4984 19.7319 17.4334 19.7708 17.3779 19.8213C17.3225 19.8718 17.2777 19.9329 17.2462 20.001C17.2147 20.0691 17.1971 20.1427 17.1945 20.2177C17.1919 20.2927 17.2043 20.3674 17.2311 20.4375C17.6938 21.7444 18.436 22.9345 19.4061 23.925C17.931 25.0694 16.1167 25.6896 14.2498 25.6875C14.1006 25.6875 13.9575 25.7468 13.8521 25.8523C13.7466 25.9577 13.6873 26.1008 13.6873 26.25C13.6873 26.3992 13.7466 26.5423 13.8521 26.6477C13.9575 26.7532 14.1006 26.8125 14.2498 26.8125C16.434 26.8145 18.5524 26.0654 20.2498 24.6909C21.7129 25.8706 23.4908 26.5934 25.362 26.7694L22.7473 31.9988C22.7143 32.0649 22.6947 32.1368 22.6895 32.2105C22.6843 32.2842 22.6937 32.3582 22.7171 32.4283C22.7644 32.5699 22.866 32.6868 22.9995 32.7534C23.133 32.8201 23.2875 32.8309 23.4291 32.7836C23.5706 32.7364 23.6875 32.6348 23.7542 32.5013L25.0976 29.8125H31.902L33.2464 32.5013C33.2931 32.5948 33.3649 32.6735 33.4538 32.7284C33.5428 32.7834 33.6453 32.8125 33.7498 32.8125C33.8371 32.8127 33.9232 32.7922 34.0011 32.7525C34.1344 32.6859 34.2358 32.5691 34.2831 32.4278C34.3303 32.2865 34.3196 32.1322 34.2532 31.9988ZM25.6601 28.6875L28.4998 23.0081L31.3395 28.6875H25.6601Z" fill="#F4F6F6"/>
</g>
</g>
<path d="M0.25 16C0.25 7.30151 7.30152 0.25 16 0.25H32C40.6985 0.25 47.75 7.30152 47.75 16V32C47.75 40.6985 40.6985 47.75 32 47.75H16C7.30151 47.75 0.25 40.6985 0.25 32V16Z" stroke="#C5C9C8" stroke-width="0.5"/>
<defs>
<filter id="filter0_d_73_3048" x="0.799805" y="4.80005" width="46.4" height="46.4" filterUnits="userSpaceOnUse" color-interpolation-filters="sRGB">
<feFlood flood-opacity="0" result="BackgroundImageFix"/>
<feColorMatrix in="SourceAlpha" type="matrix" values="0 0 0 0 0 0 0 0 0 0 0 0 0 0 0 0 0 0 127 0" result="hardAlpha"/>
<feOffset dy="4"/>
<feGaussianBlur stdDeviation="2"/>
<feComposite in2="hardAlpha" operator="out"/>
<feColorMatrix type="matrix" values="0 0 0 0 0.0156863 0 0 0 0 0.12549 0 0 0 0 0.101961 0 0 0 0.25 0"/>
<feBlend mode="normal" in2="BackgroundImageFix" result="effect1_dropShadow_73_3048"/>
<feBlend mode="normal" in="SourceGraphic" in2="effect1_dropShadow_73_3048" result="shape"/>
</filter>
<clipPath id="clip0_73_3048">
<path d="M0 16C0 7.16344 7.16344 0 16 0H32C40.8366 0 48 7.16344 48 16V32C48 40.8366 40.8366 48 32 48H16C7.16344 48 0 40.8366 0 32V16Z" fill="white"/>
</clipPath>
</defs>
</svg>
