<svg width="80" height="80" viewBox="0 0 80 80" fill="none" xmlns="http://www.w3.org/2000/svg">
<g filter="url(#filter0_d_1_1782)">
<path d="M16 28C16 19.1634 23.1634 12 32 12H48C56.8366 12 64 19.1634 64 28V44C64 52.8366 56.8366 60 48 60H32C23.1634 60 16 52.8366 16 44V28Z" fill="#EFF0F0" shape-rendering="crispEdges"/>
<path d="M16.0524 28C16.0524 19.1924 23.1924 12.0524 32 12.0524H48C56.8076 12.0524 63.9476 19.1924 63.9476 28V44C63.9476 52.8076 56.8076 59.9476 48 59.9476H32C23.1924 59.9476 16.0524 52.8076 16.0524 44V28Z" stroke="#C5C9C8" stroke-width="0.104804" shape-rendering="crispEdges"/>
<g filter="url(#filter1_d_1_1782)">
<path d="M20.7998 28.8C20.7998 22.1726 26.1724 16.8 32.7998 16.8H47.1998C53.8272 16.8 59.1998 22.1726 59.1998 28.8V43.2C59.1998 49.8274 53.8272 55.2 47.1998 55.2H32.7998C26.1724 55.2 20.7998 49.8274 20.7998 43.2V28.8Z" fill="#2A3735"/>
<g clip-path="url(#clip0_1_1782)">
<path d="M44.4502 39.563C43.6742 40.239 42.7061 41.0804 40.9456 41.0804H39.8958C38.6232 41.0804 37.4661 40.627 36.6381 39.804C35.8293 39.0003 35.3838 37.9001 35.3838 36.7058V35.2942C35.3838 34.0998 35.8293 32.9996 36.6381 32.1959C37.4661 31.3729 38.6232 30.9196 39.8958 30.9196H40.9456C42.7061 30.9196 43.6733 31.7609 44.4502 32.4369C45.2558 33.138 45.9519 33.7432 47.806 33.7432C48.0888 33.7433 48.3712 33.7211 48.6504 33.6769C48.6504 33.6715 48.6467 33.6666 48.6445 33.6612C48.5333 33.3905 48.4029 33.1278 48.2542 32.875L47.0145 30.7672C46.4555 29.8172 45.6517 29.0282 44.6836 28.4796C43.7156 27.931 42.6175 27.6422 41.4997 27.6421H39.0199C37.9021 27.6422 36.804 27.931 35.836 28.4796C34.8679 29.0282 34.0641 29.8172 33.5051 30.7672L32.2654 32.875C31.7066 33.8251 31.4124 34.9029 31.4124 36C31.4124 37.097 31.7066 38.1748 32.2654 39.1249L33.5051 41.2327C34.0641 42.1827 34.868 42.9716 35.836 43.5201C36.804 44.0686 37.9021 44.3574 39.0199 44.3574H41.4997C42.6175 44.3574 43.7156 44.0686 44.6836 43.5201C45.6516 42.9716 46.4555 42.1827 47.0145 41.2327L48.2542 39.1249C48.4029 38.8721 48.5333 38.6094 48.6445 38.3387C48.6445 38.3333 48.6486 38.3284 48.6504 38.323C48.3712 38.2788 48.0888 38.2566 47.806 38.2567C45.9519 38.2567 45.2558 38.8619 44.4502 39.563Z" fill="#F4F6F6"/>
<path d="M40.9456 32.1982H39.8958C37.9596 32.1982 36.687 33.5556 36.687 35.2934V36.705C36.687 38.4427 37.9596 39.8001 39.8958 39.8001H40.9456C43.7674 39.8001 43.5474 36.9778 47.806 36.9778C48.2097 36.9775 48.6127 37.0136 49.0096 37.0858C49.1388 36.3677 49.1388 35.6329 49.0096 34.9148C48.6127 34.9874 48.2098 35.0236 47.806 35.0232C43.546 35.0228 43.7674 32.1982 40.9456 32.1982Z" fill="#F4F6F6"/>
<path d="M51.4569 38.1174C50.731 37.5967 49.8942 37.2444 49.0095 37.087C49.0095 37.0942 49.0072 37.1014 49.0058 37.1081C48.9299 37.5245 48.8107 37.9322 48.6503 38.3248C49.3812 38.4358 50.0748 38.7159 50.6737 39.142C50.6737 39.1482 50.67 39.1545 50.6677 39.1612C50.3283 40.2431 49.8154 41.2649 49.1482 42.1883C48.4887 43.1031 47.6879 43.9114 46.7747 44.5841C44.564 46.2164 41.8047 46.9645 39.0538 46.6775C36.3029 46.3905 33.7654 45.0897 31.9537 43.0378C30.1421 40.9859 29.1912 38.3357 29.293 35.6224C29.3949 32.9091 30.542 30.3349 32.5026 28.4194C33.8346 27.1131 35.4879 26.1667 37.3021 25.672C39.1164 25.1773 41.0301 25.1511 42.8577 25.5959C44.6853 26.0407 46.3649 26.9414 47.7335 28.2107C49.102 29.48 50.1133 31.0748 50.6691 32.8406C50.6714 32.8473 50.6732 32.8536 50.675 32.8598C50.0757 33.2859 49.3817 33.5659 48.6503 33.6765C48.8107 34.0695 48.93 34.4775 49.0063 34.8941C49.0063 34.9009 49.0063 34.9076 49.0095 34.9139C49.8943 34.7569 50.7312 34.4046 51.4569 33.8835C52.1548 33.3768 52.0197 32.8043 51.9134 32.4656C50.3756 27.5624 45.7249 24 40.2261 24C33.4739 24 27.9998 29.3727 27.9998 35.9998C27.9998 42.6268 33.4739 48 40.2261 48C45.7249 48 50.3756 44.4376 51.9111 39.5357C52.0197 39.1971 52.1548 38.6245 51.4569 38.1174Z" fill="#F4F6F6"/>
</g>
</g>
</g>
<defs>
<filter id="filter0_d_1_1782" x="0" y="0" width="80" height="80" filterUnits="userSpaceOnUse" color-interpolation-filters="sRGB">
<feFlood flood-opacity="0" result="BackgroundImageFix"/>
<feColorMatrix in="SourceAlpha" type="matrix" values="0 0 0 0 0 0 0 0 0 0 0 0 0 0 0 0 0 0 127 0" result="hardAlpha"/>
<feOffset dy="4"/>
<feGaussianBlur stdDeviation="8"/>
<feComposite in2="hardAlpha" operator="out"/>
<feColorMatrix type="matrix" values="0 0 0 0 0.101961 0 0 0 0 0.14902 0 0 0 0 0.145098 0 0 0 0.15 0"/>
<feBlend mode="normal" in2="BackgroundImageFix" result="effect1_dropShadow_1_1782"/>
<feBlend mode="normal" in="SourceGraphic" in2="effect1_dropShadow_1_1782" result="shape"/>
</filter>
<filter id="filter1_d_1_1782" x="16.7998" y="16.8" width="46.4" height="46.4" filterUnits="userSpaceOnUse" color-interpolation-filters="sRGB">
<feFlood flood-opacity="0" result="BackgroundImageFix"/>
<feColorMatrix in="SourceAlpha" type="matrix" values="0 0 0 0 0 0 0 0 0 0 0 0 0 0 0 0 0 0 127 0" result="hardAlpha"/>
<feOffset dy="4"/>
<feGaussianBlur stdDeviation="2"/>
<feComposite in2="hardAlpha" operator="out"/>
<feColorMatrix type="matrix" values="0 0 0 0 0.0156863 0 0 0 0 0.12549 0 0 0 0 0.101961 0 0 0 0.25 0"/>
<feBlend mode="normal" in2="BackgroundImageFix" result="effect1_dropShadow_1_1782"/>
<feBlend mode="normal" in="SourceGraphic" in2="effect1_dropShadow_1_1782" result="shape"/>
</filter>
<clipPath id="clip0_1_1782">
<rect width="23.52" height="24" fill="white" transform="translate(28.2398 24)"/>
</clipPath>
</defs>
</svg>
