<svg width="110" height="32" viewBox="0 0 110 32" fill="none" xmlns="http://www.w3.org/2000/svg">
<path d="M10.4763 22.2855C16.2621 22.2855 20.9525 17.5952 20.9525 11.8093C20.9525 11.1536 20.8922 10.512 20.777 9.88961C20.1546 9.77436 19.513 9.71411 18.8572 9.71411C13.0714 9.71411 8.38104 14.4045 8.38104 20.1903C8.38104 20.846 8.44129 21.4877 8.55654 22.11C9.1789 22.2253 9.82055 22.2855 10.4763 22.2855Z" fill="#5F6766"/>
<path opacity="0.8" fill-rule="evenodd" clip-rule="evenodd" d="M8.55646 22.1101C3.68745 21.2084 0 16.9396 0 11.8094C0 6.0236 4.69035 1.33325 10.4762 1.33325C15.6063 1.33325 19.8752 5.0207 20.7769 9.88971C20.1545 9.77445 19.5129 9.7142 18.8571 9.7142C13.0713 9.7142 8.38095 14.4046 8.38095 20.1904C8.38095 20.8461 8.4412 21.4878 8.55646 22.1101Z" fill="#5F6766"/>
<path opacity="0.6" fill-rule="evenodd" clip-rule="evenodd" d="M10.4762 22.2856C16.262 22.2856 20.9524 17.5952 20.9524 11.8094C20.9524 11.1537 20.8921 10.512 20.7769 9.88965C25.6459 10.7914 29.3333 15.0602 29.3333 20.1903C29.3333 25.9762 24.643 30.6665 18.8572 30.6665C13.727 30.6665 9.45817 26.9791 8.55646 22.1101C9.17881 22.2253 9.82047 22.2856 10.4762 22.2856Z" fill="#5F6766"/>
<path d="M45.0334 22.8268C48.6134 22.8268 51.1934 20.8068 51.4534 17.8068H48.4534C48.2134 19.2468 46.8334 20.2268 45.0334 20.2268C42.7734 20.2268 41.0334 18.6668 41.0334 15.6668C41.0334 12.6668 42.7734 11.0868 45.0334 11.0868C46.7934 11.0868 48.1734 12.0668 48.3734 13.5268H51.5134C51.1334 10.5068 48.5534 8.50679 45.0334 8.50679C41.2934 8.50679 38.0134 10.9468 38.0134 15.6668C38.0134 20.3868 41.2334 22.8268 45.0334 22.8268Z" fill="#5F6766"/>
<path d="M57.0209 12.4268C54.2609 12.4268 52.6209 14.0468 52.5009 16.0668H54.9809C55.0209 15.2268 55.6409 14.4668 56.8609 14.4668C58.0009 14.4668 58.6609 15.0468 58.6609 15.8868C58.6609 16.3068 58.4009 16.6268 57.9009 16.6268H56.2009C54.0009 16.6268 52.5209 17.8268 52.5209 19.8068C52.5209 21.5268 53.8609 22.8268 55.8209 22.8268C57.2009 22.8268 58.3209 22.2068 58.6609 21.2668V22.6668H61.4209V16.1868C61.4209 13.9068 59.5609 12.4268 57.0209 12.4268ZM56.5209 20.8068C55.7409 20.8068 55.1809 20.3468 55.1809 19.6868C55.1809 18.9068 55.7809 18.3868 56.6209 18.3868H58.6609V18.5268C58.6609 19.8068 57.8809 20.8068 56.5209 20.8068Z" fill="#5F6766"/>
<path d="M63.2891 26.7468H66.0691V21.7668C66.6091 22.4468 67.5891 22.8268 68.7291 22.8268C71.6291 22.8268 73.5892 20.7668 73.5892 17.6268C73.5892 14.4868 71.7892 12.4268 68.9692 12.4268C67.6692 12.4268 66.6691 12.9068 66.0691 13.6868V12.5868H63.2891V26.7468ZM68.3892 20.4268C66.8892 20.4268 65.9092 19.3068 65.9092 17.6268C65.9092 15.9268 66.8892 14.8068 68.3892 14.8068C69.8492 14.8068 70.8492 15.9268 70.8492 17.6268C70.8492 19.3068 69.8492 20.4268 68.3892 20.4268Z" fill="#5F6766"/>
<path d="M78.4841 22.8268C80.8441 22.8268 82.4042 21.5668 82.4042 19.6468C82.4042 15.0868 76.8841 17.4268 76.8841 15.3668C76.8841 14.7268 77.4241 14.3868 78.2041 14.3868C78.9641 14.3868 79.7441 14.8468 79.8641 15.7068H82.2842C82.1842 13.7268 80.5441 12.4268 78.1241 12.4268C76.0641 12.4268 74.5241 13.6868 74.5241 15.4668C74.5241 19.7068 79.9441 17.6868 79.9441 19.7468C79.9441 20.3068 79.3441 20.7268 78.4841 20.7268C77.4441 20.7268 76.7441 20.1668 76.6441 19.2668H74.2441C74.3441 21.4468 76.0241 22.8268 78.4841 22.8268Z" fill="#5F6766"/>
<path d="M93.3843 12.5868H90.5843V18.1068C90.5843 19.3868 89.7243 20.3468 88.5043 20.3468C87.3643 20.3468 86.5643 19.4668 86.5643 18.2468V12.5868H83.7843V18.8668C83.7843 21.1668 85.2643 22.8268 87.5243 22.8268C88.9043 22.8268 90.0243 22.2268 90.5843 21.2668V22.6668H93.3843V12.5868Z" fill="#5F6766"/>
<path d="M95.3845 22.6668H98.1645V8.20679H95.3845V22.6668Z" fill="#5F6766"/>
<path d="M106.901 19.2468C106.681 20.1068 105.941 20.5468 104.821 20.5468C103.421 20.5468 102.521 19.6668 102.321 18.2468H109.561C109.581 18.0268 109.601 17.7268 109.601 17.3468C109.601 15.0468 108.181 12.4268 104.621 12.4268C101.201 12.4268 99.6412 15.0468 99.6412 17.6068C99.6412 20.1468 101.401 22.8268 104.821 22.8268C107.301 22.8268 109.221 21.4268 109.621 19.2468H106.901ZM104.621 14.4668C105.961 14.4668 106.741 15.3668 106.821 16.4868H102.361C102.601 15.0868 103.361 14.4668 104.621 14.4668Z" fill="#5F6766"/>
</svg>
