<svg width="48" height="48" viewBox="0 0 48 48" fill="none" xmlns="http://www.w3.org/2000/svg">
<g clip-path="url(#clip0_73_3063)">
<path d="M0 16C0 7.16344 7.16344 0 16 0H32C40.8366 0 48 7.16344 48 16V32C48 40.8366 40.8366 48 32 48H16C7.16344 48 0 40.8366 0 32V16Z" fill="#F4F6F6"/>
<g filter="url(#filter0_d_73_3063)">
<path d="M4.7998 16.8C4.7998 10.1726 10.1724 4.80005 16.7998 4.80005H31.1998C37.8272 4.80005 43.1998 10.1726 43.1998 16.8V31.2001C43.1998 37.8275 37.8272 43.2001 31.1998 43.2001H16.7998C10.1724 43.2001 4.7998 37.8275 4.7998 31.2V16.8Z" fill="#0A5042"/>
<path d="M34.8973 19.1025L31.8973 16.1025C31.7907 16.0031 31.6496 15.9491 31.5039 15.9516C31.3582 15.9542 31.2191 16.0132 31.1161 16.1163C31.013 16.2194 30.954 16.3584 30.9514 16.5041C30.9489 16.6498 31.0029 16.7909 31.1023 16.8975L33.1414 18.9375H29.9998C29.108 18.9697 28.2314 19.1784 27.4207 19.5516C26.1851 20.1216 24.6232 21.3403 24.1948 23.9072C23.6473 27.1884 21.1011 27.8044 20.0136 27.915C19.8662 27.0312 19.3912 26.2354 18.6833 25.6862C17.9753 25.137 17.0864 24.8747 16.1938 24.9516C15.3011 25.0285 14.4702 25.439 13.8666 26.1012C13.263 26.7634 12.9312 27.6287 12.9372 28.5247C12.9431 29.4207 13.2865 30.2815 13.8988 30.9356C14.5112 31.5897 15.3475 31.9891 16.2411 32.0541C17.1347 32.1191 18.0201 31.845 18.7206 31.2864C19.4211 30.7278 19.8855 29.9257 20.0211 29.04C20.7248 28.9775 21.4138 28.8012 22.0611 28.5178C23.2957 27.9684 24.8604 26.7553 25.3048 24.0919C25.9611 20.13 29.8367 20.0606 29.9998 20.0606H33.1414L31.1023 22.1006C31.047 22.1521 31.0027 22.2142 30.972 22.2832C30.9412 22.3522 30.9247 22.4267 30.9234 22.5022C30.922 22.5778 30.9359 22.6528 30.9642 22.7228C30.9925 22.7929 31.0346 22.8565 31.088 22.9099C31.1414 22.9633 31.2051 23.0054 31.2751 23.0337C31.3451 23.062 31.4202 23.0759 31.4957 23.0746C31.5712 23.0732 31.6457 23.0567 31.7147 23.026C31.7837 22.9952 31.8458 22.9509 31.8973 22.8956L34.8973 19.8956C35.0021 19.7902 35.0609 19.6477 35.0609 19.4991C35.0609 19.3505 35.0021 19.2079 34.8973 19.1025ZM16.4998 30.9375C16.0177 30.9375 15.5464 30.7946 15.1456 30.5267C14.7448 30.2589 14.4323 29.8782 14.2478 29.4328C14.0634 28.9874 14.0151 28.4973 14.1091 28.0245C14.2032 27.5516 14.4353 27.1173 14.7762 26.7764C15.1171 26.4355 15.5514 26.2034 16.0243 26.1093C16.4971 26.0153 16.9872 26.0636 17.4326 26.248C17.878 26.4325 18.2587 26.745 18.5265 27.1458C18.7943 27.5466 18.9373 28.0179 18.9373 28.5C18.9373 29.1465 18.6805 29.7665 18.2234 30.2236C17.7663 30.6807 17.1463 30.9375 16.4998 30.9375Z" fill="#F4F6F6"/>
</g>
</g>
<path d="M0.25 16C0.25 7.30151 7.30152 0.25 16 0.25H32C40.6985 0.25 47.75 7.30152 47.75 16V32C47.75 40.6985 40.6985 47.75 32 47.75H16C7.30151 47.75 0.25 40.6985 0.25 32V16Z" stroke="#C5C9C8" stroke-width="0.5"/>
<defs>
<filter id="filter0_d_73_3063" x="0.799805" y="4.80005" width="46.4" height="46.4" filterUnits="userSpaceOnUse" color-interpolation-filters="sRGB">
<feFlood flood-opacity="0" result="BackgroundImageFix"/>
<feColorMatrix in="SourceAlpha" type="matrix" values="0 0 0 0 0 0 0 0 0 0 0 0 0 0 0 0 0 0 127 0" result="hardAlpha"/>
<feOffset dy="4"/>
<feGaussianBlur stdDeviation="2"/>
<feComposite in2="hardAlpha" operator="out"/>
<feColorMatrix type="matrix" values="0 0 0 0 0.0156863 0 0 0 0 0.12549 0 0 0 0 0.101961 0 0 0 0.25 0"/>
<feBlend mode="normal" in2="BackgroundImageFix" result="effect1_dropShadow_73_3063"/>
<feBlend mode="normal" in="SourceGraphic" in2="effect1_dropShadow_73_3063" result="shape"/>
</filter>
<clipPath id="clip0_73_3063">
<path d="M0 16C0 7.16344 7.16344 0 16 0H32C40.8366 0 48 7.16344 48 16V32C48 40.8366 40.8366 48 32 48H16C7.16344 48 0 40.8366 0 32V16Z" fill="white"/>
</clipPath>
</defs>
</svg>
