<svg width="736" height="368" viewBox="0 0 736 368" fill="none" xmlns="http://www.w3.org/2000/svg">
<mask id="mask0_1_1769" style="mask-type:alpha" maskUnits="userSpaceOnUse" x="0" y="0" width="736" height="368">
<rect width="736" height="368" fill="url(#paint0_linear_1_1769)"/>
</mask>
<g mask="url(#mask0_1_1769)">
<path fill-rule="evenodd" clip-rule="evenodd" d="M368 735C570.688 735 735 570.688 735 368C735 165.312 570.688 1 368 1C165.312 1 1 165.312 1 368C1 570.688 165.312 735 368 735ZM368 736C571.241 736 736 571.241 736 368C736 164.759 571.241 0 368 0C164.759 0 0 164.759 0 368C0 571.241 164.759 736 368 736Z" fill="#C5C9C8"/>
<path fill-rule="evenodd" clip-rule="evenodd" d="M368 680C540.313 680 680 540.313 680 368C680 195.687 540.313 56 368 56C195.687 56 56 195.687 56 368C56 540.313 195.687 680 368 680ZM368 681C540.865 681 681 540.865 681 368C681 195.135 540.865 55 368 55C195.135 55 55 195.135 55 368C55 540.865 195.135 681 368 681Z" fill="#C5C9C8"/>
<path fill-rule="evenodd" clip-rule="evenodd" d="M368 624C509.385 624 624 509.385 624 368C624 226.615 509.385 112 368 112C226.615 112 112 226.615 112 368C112 509.385 226.615 624 368 624ZM368 625C509.937 625 625 509.937 625 368C625 226.063 509.937 111 368 111C226.063 111 111 226.063 111 368C111 509.937 226.063 625 368 625Z" fill="#C5C9C8"/>
<path fill-rule="evenodd" clip-rule="evenodd" d="M368 545C465.754 545 545 465.754 545 368C545 270.246 465.754 191 368 191C270.246 191 191 270.246 191 368C191 465.754 270.246 545 368 545ZM368 546C466.307 546 546 466.307 546 368C546 269.693 466.307 190 368 190C269.693 190 190 269.693 190 368C190 466.307 269.693 546 368 546Z" fill="#C5C9C8"/>
<path fill-rule="evenodd" clip-rule="evenodd" d="M368 469C423.781 469 469 423.781 469 368C469 312.219 423.781 267 368 267C312.219 267 267 312.219 267 368C267 423.781 312.219 469 368 469ZM368 470C424.333 470 470 424.333 470 368C470 311.667 424.333 266 368 266C311.667 266 266 311.667 266 368C266 424.333 311.667 470 368 470Z" fill="#C5C9C8"/>
</g>
<defs>
<linearGradient id="paint0_linear_1_1769" x1="368" y1="0" x2="368" y2="368" gradientUnits="userSpaceOnUse">
<stop stop-color="#D9D9D9"/>
<stop offset="1" stop-color="#D9D9D9" stop-opacity="0"/>
</linearGradient>
</defs>
</svg>
