<svg width="134" height="32" viewBox="0 0 134 32" fill="none" xmlns="http://www.w3.org/2000/svg">
<path d="M8.62151 2.99042L12.0538 15.8V1.71688C12.326 1.65337 12.6011 1.59744 12.8788 1.54932V15.8013L16.7393 1.3938C17.0175 1.41898 17.2935 1.45194 17.567 1.49244L13.6754 16.0161L21.4109 2.61782C21.6629 2.73119 21.9111 2.85147 22.1553 2.97842L14.391 16.4266L25.4755 5.34207C25.6754 5.53105 25.8699 5.7256 26.0589 5.92545L14.9727 17.0116L28.4225 9.24639C28.5494 9.49062 28.6697 9.73886 28.783 9.99088L15.3881 17.7244L29.9077 13.8339C29.9482 14.1074 29.9812 14.3834 30.0063 14.6616L15.599 18.522L29.8506 18.522C29.8025 18.7998 29.7465 19.0749 29.683 19.347L15.5968 19.347L28.4089 22.78C28.2773 23.032 28.1386 23.2796 27.9931 23.5227L15.3869 20.1449L25.916 26.2239C25.7166 26.4288 25.5114 26.628 25.3004 26.8211L14.9753 20.8599L22.7881 28.6727C22.541 28.8171 22.2893 28.9545 22.0332 29.0846L14.3911 21.4424L19.3983 30.1152C19.1241 30.1927 18.8467 30.2624 18.5663 30.3241L13.6759 21.8537L16.0338 30.6533C15.8236 30.6623 15.6123 30.6668 15.3999 30.6668C15.3274 30.6668 15.2551 30.6663 15.1828 30.6652L12.8788 22.0665V30.4509C12.6011 30.4028 12.326 30.3469 12.0538 30.2834V22.0679L10.0223 29.6496C9.76319 29.5474 9.50768 29.4381 9.25603 29.3218L11.2566 21.8555L7.50109 28.3603C7.26859 28.2114 7.04056 28.0561 6.81726 27.8947L10.5433 21.4411L5.32525 26.6591C5.12539 26.4701 4.93085 26.2756 4.74186 26.0757L9.95824 20.8594L3.50646 24.5843C3.34502 24.361 3.18972 24.133 3.04079 23.9005L9.54864 20.1432L2.0786 22.1448C1.96233 21.8932 1.85298 21.6376 1.75079 21.3785L9.33248 19.347L1.11687 19.347C1.05334 19.0749 0.997392 18.7998 0.949257 18.522L9.33026 18.522L0.73486 16.2189C0.733795 16.1461 0.733261 16.0732 0.733261 16.0001C0.733261 15.7883 0.737751 15.5776 0.74664 15.368L9.54744 17.7261L1.07568 12.8349C1.13736 12.5545 1.20707 12.2771 1.28456 12.0029L9.96085 17.0122L2.31549 9.36682C2.44556 9.11076 2.58292 8.85903 2.72731 8.61191L10.5434 16.428L4.57977 6.09872C4.77288 5.88781 4.97207 5.68256 5.17707 5.48326L11.2571 16.0142L7.87879 3.40611C8.12188 3.26062 8.36955 3.12197 8.62151 2.99042Z" fill="#5F6766"/>
<path d="M39.2987 22.6061H42.4907V17.0621H48.856V14.2434H42.4907V11.8728H49.2667V9.07275H39.2987V22.6061Z" fill="#5F6766"/>
<path d="M54.6918 14.6541C55.9052 14.6541 56.8758 15.4008 56.8758 17.5474C56.8758 19.6568 55.9425 20.4594 54.6918 20.4594C53.4412 20.4594 52.5078 19.6568 52.5078 17.5474C52.5078 15.4008 53.4785 14.6541 54.6918 14.6541ZM54.6918 12.2648C51.9105 12.2648 49.3718 13.9074 49.3718 17.5474C49.3718 21.1874 51.9105 22.8488 54.6918 22.8488C57.4732 22.8488 60.0118 21.1874 60.0118 17.5474C60.0118 13.9074 57.4732 12.2648 54.6918 12.2648Z" fill="#5F6766"/>
<path d="M65.9261 12.2648C62.8834 12.2648 60.7928 14.3368 60.7928 17.5288C60.7928 20.7208 62.6221 22.8488 65.9261 22.8488C67.9421 22.8488 70.3501 21.8968 71.0408 18.9101H68.1661C67.9421 19.8621 67.2514 20.4594 66.1128 20.4594C65.0114 20.4594 63.9288 19.7314 63.9288 17.5474C63.9288 15.4008 65.0114 14.6541 66.1128 14.6541C67.0274 14.6541 67.7554 15.0648 68.0354 16.2408H70.9101C70.3128 13.2168 68.0168 12.2648 65.9261 12.2648Z" fill="#5F6766"/>
<path d="M78.2779 16.3341C74.3766 16.6328 71.5952 17.4354 71.5952 19.8994C71.5952 21.7288 73.1632 22.8488 75.0672 22.8488C76.5046 22.8488 77.6992 22.4568 78.4459 21.3928L78.4832 22.6061H81.5072C81.3579 21.9714 81.2832 20.7954 81.2832 19.6941V18.6488L81.3206 16.4648C81.3766 13.4221 79.7339 12.2461 76.8406 12.2461C73.8539 12.2461 72.0619 13.9261 71.9126 15.8114H74.7872C74.9179 14.8408 75.5899 14.3368 76.5792 14.3368C77.6992 14.3368 78.2779 14.7474 78.2779 15.9421V16.3341ZM78.3526 18.3874C78.3526 20.2354 77.4192 20.7581 76.1872 20.7581C75.3846 20.7581 74.7686 20.3288 74.7686 19.6754C74.7686 18.5928 76.2059 18.3501 78.3526 18.1448V18.3874Z" fill="#5F6766"/>
<path d="M85.9812 9.07275H82.9012V22.6061H85.9812V9.07275Z" fill="#5F6766"/>
<path d="M87.945 9.07275V22.6061H91.137V17.9208H93.153C96.6624 17.9208 99.2944 17.0434 99.2944 13.4781C99.2944 9.93142 96.6624 9.07275 93.153 9.07275H87.945ZM93.2464 11.7608C94.7397 11.7608 95.9157 12.0594 95.9157 13.4781C95.9157 14.8968 94.7397 15.2328 93.2464 15.2328H91.137V11.7608H93.2464Z" fill="#5F6766"/>
<path d="M104.705 14.6541C105.919 14.6541 106.889 15.4008 106.889 17.5474C106.889 19.6568 105.956 20.4594 104.705 20.4594C103.455 20.4594 102.521 19.6568 102.521 17.5474C102.521 15.4008 103.492 14.6541 104.705 14.6541ZM104.705 12.2648C101.924 12.2648 99.3854 13.9074 99.3854 17.5474C99.3854 21.1874 101.924 22.8488 104.705 22.8488C107.487 22.8488 110.025 21.1874 110.025 17.5474C110.025 13.9074 107.487 12.2648 104.705 12.2648Z" fill="#5F6766"/>
<path d="M111.258 12.5634V22.6061H114.356V12.5634H111.258ZM111.258 9.07275V11.5368H114.338V9.07275H111.258Z" fill="#5F6766"/>
<path d="M119.269 12.5634H116.189V22.6061H119.269V17.4541C119.269 15.5874 119.81 14.7288 121.136 14.7288C122.629 14.7288 122.685 15.9048 122.685 17.3421V22.6061H125.765V16.5768C125.765 13.8514 124.962 12.3394 122.386 12.3394C120.8 12.3394 119.717 13.1421 119.269 13.8888V12.5634Z" fill="#5F6766"/>
<path d="M127.895 12.5634H126.308V14.7474H127.895V19.7874C127.895 22.1208 128.735 22.6061 131.218 22.6061H133.178V20.3848H132.3C131.274 20.3848 130.975 20.1981 130.975 19.2461V14.7474H133.178V12.5634H130.975V9.81942H127.895V12.5634Z" fill="#5F6766"/>
</svg>
