<svg width="17" height="16" viewBox="0 0 17 16" fill="none" xmlns="http://www.w3.org/2000/svg">
<path d="M15.1562 7.14863L12.3375 9.60863L13.1819 13.2711C13.2266 13.4626 13.2138 13.663 13.1452 13.8472C13.0766 14.0315 12.9553 14.1914 12.7963 14.3071C12.6373 14.4227 12.4477 14.489 12.2513 14.4975C12.0548 14.506 11.8603 14.4564 11.6919 14.3549L8.4975 12.4174L5.31 14.3549C5.14161 14.4564 4.94703 14.506 4.75061 14.4975C4.55418 14.489 4.36462 14.4227 4.20562 14.3071C4.04662 14.1914 3.92524 14.0315 3.85665 13.8472C3.78807 13.663 3.77532 13.4626 3.82 13.2711L4.66312 9.61238L1.84375 7.14863C1.69463 7.02002 1.5868 6.85024 1.53379 6.66059C1.48077 6.47094 1.48492 6.26986 1.54573 6.08257C1.60654 5.89527 1.72129 5.7301 1.8756 5.60776C2.02991 5.48542 2.2169 5.41136 2.41313 5.39488L6.12938 5.073L7.58 1.613C7.65575 1.43145 7.78353 1.27637 7.94724 1.16729C8.11095 1.05821 8.30328 1 8.5 1C8.69672 1 8.88905 1.05821 9.05276 1.16729C9.21647 1.27637 9.34425 1.43145 9.42 1.613L10.875 5.073L14.59 5.39488C14.7862 5.41136 14.9732 5.48542 15.1275 5.60776C15.2818 5.7301 15.3966 5.89527 15.4574 6.08257C15.5182 6.26986 15.5224 6.47094 15.4693 6.66059C15.4163 6.85024 15.3085 7.02002 15.1594 7.14863H15.1562Z" fill="#FEB800"/>
</svg>
