<svg width="100" height="32" viewBox="0 0 100 32" fill="none" xmlns="http://www.w3.org/2000/svg">
<path opacity="0.8" d="M21.6634 3.10669C23.637 6.97632 24.75 11.3582 24.75 16C24.75 20.6419 23.637 25.0238 21.6634 28.8934C26.2322 26.4088 29.3333 21.5666 29.3333 16C29.3333 10.4335 26.2322 5.59127 21.6634 3.10669Z" fill="#5F6766"/>
<path d="M15.0683 2.79907C14.4049 1.8593 13.2748 1.35318 12.1414 1.54987C5.24458 2.74674 0 8.76088 0 15.9999C0 23.239 5.24455 29.2531 12.1413 30.45C13.2747 30.6467 14.4048 30.1406 15.0682 29.2008C17.7025 25.469 19.25 20.9152 19.25 15.9999C19.25 11.0847 17.7026 6.53086 15.0683 2.79907Z" fill="#5F6766"/>
<path d="M43.056 22.8301C45.632 22.8301 47.648 21.9154 48.8427 20.3847V15.5874H43.896L43.8027 18.0141L45.7813 17.9207V19.4514C45.0533 20.0301 44.1573 20.3101 43.2987 20.3101C41.152 20.3101 39.7893 18.6861 39.7893 16.0914C39.7893 13.4967 41.0587 11.8727 43.0933 11.8727C44.4373 11.8727 45.3707 12.6754 45.5013 13.9634H48.8427C48.6187 11.1261 46.3973 9.35273 43.0933 9.35273C39.1173 9.35273 36.616 11.9474 36.616 16.0914C36.616 20.2354 39.0987 22.8301 43.056 22.8301Z" fill="#5F6766"/>
<path d="M57.0248 22.6061H59.8435V15.8301C59.8435 13.3847 58.0328 12.0034 55.1955 12.0034C52.2835 12.0034 50.4168 13.3474 50.2301 15.5314H53.0675C53.1608 14.6167 53.9075 14.0567 55.0648 14.0567C56.2408 14.0567 56.9315 14.6541 56.9315 15.6434V16.3527H55.0275C52.2275 16.3527 50.5288 17.5661 50.5288 19.7127C50.5288 21.5421 51.8541 22.8301 53.8701 22.8301C55.1581 22.8301 56.2595 22.4754 56.9688 21.5794L57.0248 22.6061ZM53.3848 19.5261C53.3848 18.7234 54.0008 18.3874 54.9715 18.3874L56.9315 18.3687V19.1714C56.3715 20.0301 55.6061 20.5341 54.5981 20.5341C53.7768 20.5341 53.3848 20.0861 53.3848 19.5261Z" fill="#5F6766"/>
<path d="M61.9846 22.6061H64.8966V8.79273H61.9846V22.6061Z" fill="#5F6766"/>
<path d="M67.1248 22.6061H70.0368V12.2274H67.1248V22.6061ZM67.0128 10.8461H70.1114V8.12073H67.0128V10.8461Z" fill="#5F6766"/>
<path d="M72.2658 22.6061H75.1778V8.79273H72.2658V22.6061Z" fill="#5F6766"/>
<path d="M82.3153 22.8301C85.2273 22.8301 87.206 21.3554 87.4487 18.9847H84.5367C84.35 19.8621 83.51 20.4967 82.3153 20.4967C80.7847 20.4967 79.9447 19.3581 79.8513 17.8647H87.486C87.766 14.2621 85.8247 12.0034 82.4647 12.0034C79.0673 12.0034 76.9207 14.0941 76.9207 17.4167C76.9207 20.7394 78.9927 22.8301 82.3153 22.8301ZM80.0753 15.8674C80.43 14.8034 81.1954 14.2621 82.446 14.2621C83.6033 14.2621 84.4434 14.9154 84.518 15.8674H80.0753Z" fill="#5F6766"/>
<path d="M94.0718 22.8301C97.3945 22.8301 99.3919 20.7954 99.3919 17.4167C99.3919 14.0381 97.3945 12.0034 94.0718 12.0034C90.7492 12.0034 88.7332 14.0381 88.7332 17.4167C88.7332 20.7954 90.7492 22.8301 94.0718 22.8301ZM91.6452 17.4167C91.6452 15.4941 92.5598 14.3554 94.0718 14.3554C95.5652 14.3554 96.4799 15.4941 96.4799 17.4167C96.4799 19.3394 95.5652 20.4781 94.0718 20.4781C92.5598 20.4781 91.6452 19.3394 91.6452 17.4167Z" fill="#5F6766"/>
</svg>
