<svg width="132" height="32" viewBox="0 0 132 32" fill="none" xmlns="http://www.w3.org/2000/svg">
<path d="M20.9526 1.33325H9.71409L0.666687 10.3806V21.6192L9.71409 30.6666H20.9526L30 21.6192V10.3806L20.9526 1.33325ZM11.2691 21.7606L5.47313 15.9646L11.2691 10.1686C13.4603 7.97743 17.0651 7.97743 19.2563 10.1686L25.0522 15.9646L19.2563 21.7606C17.0651 23.9517 13.5309 23.9517 11.2691 21.7606Z" fill="#5F6766"/>
<path d="M42.8933 22.8268C44.6933 22.8268 46.1733 21.9068 46.6333 20.5268V22.6668H49.2933V17.2668C49.2933 16.0468 48.3333 15.0068 47.0333 15.0068H43.2333V17.2668H45.9333C46.2733 17.2668 46.4933 17.4868 46.4933 17.8268C46.4933 19.1268 44.7733 20.3868 43.0333 20.3868C40.7133 20.3868 38.8733 18.5668 38.8733 15.6668C38.8733 12.7668 40.7133 11.0868 43.0933 11.0868C44.8933 11.0868 46.1333 12.0668 46.3533 13.5668H49.3333C49.1533 10.5668 46.6333 8.50679 43.1133 8.50679C39.4133 8.50679 36.0133 10.8868 36.0133 15.6668C36.0133 20.4468 39.3133 22.8268 42.8933 22.8268Z" fill="#5F6766"/>
<path d="M50.4352 22.6668H53.2152V8.20679H50.4352V22.6668Z" fill="#5F6766"/>
<path d="M59.2119 22.8268C62.3119 22.8268 64.5319 20.6268 64.5319 17.6268C64.5319 14.6268 62.3119 12.4268 59.2119 12.4268C56.1119 12.4268 53.8919 14.6268 53.8919 17.6268C53.8919 20.6268 56.1119 22.8268 59.2119 22.8268ZM59.2119 20.4268C57.7119 20.4268 56.6919 19.2868 56.6919 17.6268C56.6919 15.9468 57.7119 14.8068 59.2119 14.8068C60.7119 14.8068 61.7319 15.9468 61.7319 17.6268C61.7319 19.2868 60.7119 20.4268 59.2119 20.4268Z" fill="#5F6766"/>
<path d="M70.7526 22.8268C73.7326 22.8268 75.5126 20.7668 75.5126 17.6268C75.5126 14.4868 73.7326 12.4268 70.7926 12.4268C69.5326 12.4268 68.5526 12.9068 67.9926 13.6468V8.20679H65.2126V22.6668H67.9926V21.5668C68.5526 22.3468 69.5926 22.8268 70.7526 22.8268ZM70.3126 20.4268C68.8126 20.4268 67.8326 19.3068 67.8326 17.6268C67.8326 15.9268 68.8126 14.8068 70.3126 14.8068C71.7726 14.8068 72.7726 15.9268 72.7726 17.6268C72.7726 19.3068 71.7726 20.4268 70.3126 20.4268Z" fill="#5F6766"/>
<path d="M80.1662 12.4268C77.4062 12.4268 75.7661 14.0468 75.6461 16.0668H78.1261C78.1661 15.2268 78.7862 14.4668 80.0062 14.4668C81.1462 14.4668 81.8062 15.0468 81.8062 15.8868C81.8062 16.3068 81.5462 16.6268 81.0462 16.6268H79.3462C77.1462 16.6268 75.6661 17.8268 75.6661 19.8068C75.6661 21.5268 77.0062 22.8268 78.9662 22.8268C80.3462 22.8268 81.4662 22.2068 81.8062 21.2668V22.6668H84.5662V16.1868C84.5662 13.9068 82.7062 12.4268 80.1662 12.4268ZM79.6662 20.8068C78.8862 20.8068 78.3262 20.3468 78.3262 19.6868C78.3262 18.9068 78.9262 18.3868 79.7662 18.3868H81.8062V18.5268C81.8062 19.8068 81.0262 20.8068 79.6662 20.8068Z" fill="#5F6766"/>
<path d="M85.6344 22.6668H88.4144V8.20679H85.6344V22.6668Z" fill="#5F6766"/>
<path d="M89.8912 22.6668H95.6112C98.5712 22.6668 100.611 21.1468 100.611 18.4868C100.611 16.6468 99.5312 15.5268 98.2512 15.0268C99.0712 14.5868 99.8912 13.5868 99.8912 12.2668C99.8912 9.92679 97.9912 8.66679 95.4512 8.66679H89.8912V22.6668ZM92.8512 14.0068V11.0468H95.1712C96.5112 11.0468 97.1112 11.5868 97.1112 12.5268C97.1112 13.4668 96.5112 14.0068 95.2312 14.0068H92.8512ZM92.8512 20.0668V16.5468H95.3512C97.0112 16.5468 97.7512 17.1868 97.7512 18.3268C97.7512 19.4668 97.0112 20.0668 95.3512 20.0668H92.8512Z" fill="#5F6766"/>
<path d="M105.447 12.4268C102.687 12.4268 101.047 14.0468 100.927 16.0668H103.407C103.447 15.2268 104.067 14.4668 105.287 14.4668C106.427 14.4668 107.087 15.0468 107.087 15.8868C107.087 16.3068 106.827 16.6268 106.327 16.6268H104.627C102.427 16.6268 100.947 17.8268 100.947 19.8068C100.947 21.5268 102.287 22.8268 104.247 22.8268C105.627 22.8268 106.747 22.2068 107.087 21.2668V22.6668H109.847V16.1868C109.847 13.9068 107.987 12.4268 105.447 12.4268ZM104.947 20.8068C104.167 20.8068 103.607 20.3468 103.607 19.6868C103.607 18.9068 104.207 18.3868 105.047 18.3868H107.087V18.5268C107.087 19.8068 106.307 20.8068 104.947 20.8068Z" fill="#5F6766"/>
<path d="M110.756 22.6668H113.556V17.1468C113.556 15.8468 114.416 14.9068 115.636 14.9068C116.796 14.9068 117.576 15.7868 117.576 17.0068V22.6668H120.376V16.3868C120.376 14.0668 118.896 12.4268 116.616 12.4268C115.236 12.4268 114.116 13.0068 113.556 13.9868V12.5868H110.756V22.6668Z" fill="#5F6766"/>
<path d="M128.356 22.6668H131.716L127.376 16.5468L131.396 12.5868H127.876L124.376 16.0268V8.20679H121.576V22.6668H124.376V19.5068L125.496 18.4068L128.356 22.6668Z" fill="#5F6766"/>
</svg>
