<svg width="28" height="28" viewBox="0 0 28 28" fill="none" xmlns="http://www.w3.org/2000/svg">
<path d="M23.3691 7.25594L18.9941 2.88094C18.9127 2.79971 18.8162 2.7353 18.71 2.69138C18.6038 2.64747 18.4899 2.62491 18.375 2.625H9.625C9.16087 2.625 8.71575 2.80937 8.38756 3.13756C8.05937 3.46575 7.875 3.91087 7.875 4.375V6.125H6.125C5.66087 6.125 5.21575 6.30937 4.88756 6.63756C4.55937 6.96575 4.375 7.41087 4.375 7.875V23.625C4.375 24.0891 4.55937 24.5342 4.88756 24.8624C5.21575 25.1906 5.66087 25.375 6.125 25.375H18.375C18.8391 25.375 19.2842 25.1906 19.6124 24.8624C19.9406 24.5342 20.125 24.0891 20.125 23.625V21.875H21.875C22.3391 21.875 22.7842 21.6906 23.1124 21.3624C23.4406 21.0342 23.625 20.5891 23.625 20.125V7.875C23.6251 7.76006 23.6025 7.64623 23.5586 7.54001C23.5147 7.43379 23.4503 7.33726 23.3691 7.25594ZM18.375 23.625H6.125V7.875H14.513L18.375 11.737V20.9825C18.375 20.9891 18.375 20.9945 18.375 21C18.375 21.0055 18.375 21.0109 18.375 21.0175V23.625ZM21.875 20.125H20.125V11.375C20.1251 11.2601 20.1025 11.1462 20.0586 11.04C20.0147 10.9338 19.9503 10.8373 19.8691 10.7559L15.4941 6.38094C15.4127 6.29971 15.3162 6.2353 15.21 6.19138C15.1038 6.14747 14.9899 6.12491 14.875 6.125H9.625V4.375H18.013L21.875 8.23703V20.125ZM15.75 16.625C15.75 16.8571 15.6578 17.0796 15.4937 17.2437C15.3296 17.4078 15.1071 17.5 14.875 17.5H9.625C9.39294 17.5 9.17038 17.4078 9.00628 17.2437C8.84219 17.0796 8.75 16.8571 8.75 16.625C8.75 16.3929 8.84219 16.1704 9.00628 16.0063C9.17038 15.8422 9.39294 15.75 9.625 15.75H14.875C15.1071 15.75 15.3296 15.8422 15.4937 16.0063C15.6578 16.1704 15.75 16.3929 15.75 16.625ZM15.75 20.125C15.75 20.3571 15.6578 20.5796 15.4937 20.7437C15.3296 20.9078 15.1071 21 14.875 21H9.625C9.39294 21 9.17038 20.9078 9.00628 20.7437C8.84219 20.5796 8.75 20.3571 8.75 20.125C8.75 19.8929 8.84219 19.6704 9.00628 19.5063C9.17038 19.3422 9.39294 19.25 9.625 19.25H14.875C15.1071 19.25 15.3296 19.3422 15.4937 19.5063C15.6578 19.6704 15.75 19.8929 15.75 20.125Z" fill="#18B188"/>
</svg>
