<svg width="28" height="28" viewBox="0 0 28 28" fill="none" xmlns="http://www.w3.org/2000/svg">
<path d="M28 14.875C28 15.107 27.9078 15.3296 27.7437 15.4937C27.5796 15.6578 27.3571 15.75 27.125 15.75H25.375V17.5C25.375 17.732 25.2828 17.9546 25.1187 18.1187C24.9546 18.2828 24.7321 18.375 24.5 18.375C24.2679 18.375 24.0454 18.2828 23.8813 18.1187C23.7172 17.9546 23.625 17.732 23.625 17.5V15.75H21.875C21.6429 15.75 21.4204 15.6578 21.2563 15.4937C21.0922 15.3296 21 15.107 21 14.875C21 14.6429 21.0922 14.4204 21.2563 14.2563C21.4204 14.0922 21.6429 14 21.875 14H23.625V12.25C23.625 12.0179 23.7172 11.7954 23.8813 11.6313C24.0454 11.4672 24.2679 11.375 24.5 11.375C24.7321 11.375 24.9546 11.4672 25.1187 11.6313C25.2828 11.7954 25.375 12.0179 25.375 12.25V14H27.125C27.3571 14 27.5796 14.0922 27.7437 14.2563C27.9078 14.4204 28 14.6429 28 14.875ZM21.6705 21.3117C21.8199 21.4895 21.8925 21.7194 21.8724 21.9508C21.8523 22.1821 21.7411 22.3961 21.5633 22.5454C21.3855 22.6948 21.1556 22.7675 20.9242 22.7474C20.6928 22.7273 20.4789 22.6161 20.3295 22.4383C18.1289 19.8176 15.1036 18.375 11.8125 18.375C8.52141 18.375 5.49609 19.8176 3.29547 22.4383C3.14608 22.6159 2.93222 22.727 2.70095 22.747C2.46968 22.767 2.23994 22.6943 2.06227 22.5449C1.88459 22.3955 1.77354 22.1817 1.75354 21.9504C1.73354 21.7191 1.80623 21.4894 1.95563 21.3117C3.58969 19.367 5.62188 17.9856 7.88047 17.2462C6.5088 16.3919 5.45269 15.1141 4.87193 13.6061C4.29116 12.0981 4.21733 10.442 4.66162 8.88829C5.1059 7.3346 6.04412 5.96788 7.33433 4.99489C8.62454 4.02191 10.1965 3.49561 11.8125 3.49561C13.4285 3.49561 15.0005 4.02191 16.2907 4.99489C17.5809 5.96788 18.5191 7.3346 18.9634 8.88829C19.4077 10.442 19.3338 12.0981 18.7531 13.6061C18.1723 15.1141 17.1162 16.3919 15.7445 17.2462C18.0031 17.9856 20.0353 19.367 21.6705 21.3117ZM11.8125 16.625C12.9374 16.625 14.037 16.2914 14.9723 15.6665C15.9076 15.0415 16.6366 14.1532 17.0671 13.114C17.4975 12.0747 17.6102 10.9312 17.3907 9.8279C17.1713 8.72464 16.6296 7.71122 15.8342 6.91581C15.0388 6.1204 14.0253 5.57872 12.9221 5.35926C11.8188 5.13981 10.6752 5.25244 9.63599 5.68291C8.59673 6.11339 7.70847 6.84237 7.08352 7.77767C6.45857 8.71298 6.125 9.8126 6.125 10.9375C6.12674 12.4454 6.72651 13.891 7.79275 14.9572C8.85899 16.0235 10.3046 16.6232 11.8125 16.625Z" fill="#18B188"/>
</svg>
