<svg width="28" height="28" viewBox="0 0 28 28" fill="none" xmlns="http://www.w3.org/2000/svg">
<path d="M18.375 6.12501C18.375 5.89295 18.4672 5.67039 18.6313 5.50629C18.7954 5.3422 19.0179 5.25001 19.25 5.25001H21V3.50001C21 3.26795 21.0922 3.04539 21.2563 2.88129C21.4204 2.7172 21.6429 2.62501 21.875 2.62501C22.1071 2.62501 22.3296 2.7172 22.4937 2.88129C22.6578 3.04539 22.75 3.26795 22.75 3.50001V5.25001H24.5C24.7321 5.25001 24.9546 5.3422 25.1187 5.50629C25.2828 5.67039 25.375 5.89295 25.375 6.12501C25.375 6.35708 25.2828 6.57964 25.1187 6.74373C24.9546 6.90782 24.7321 7.00001 24.5 7.00001H22.75V8.75001C22.75 8.98208 22.6578 9.20464 22.4937 9.36873C22.3296 9.53282 22.1071 9.62501 21.875 9.62501C21.6429 9.62501 21.4204 9.53282 21.2563 9.36873C21.0922 9.20464 21 8.98208 21 8.75001V7.00001H19.25C19.0179 7.00001 18.7954 6.90782 18.6313 6.74373C18.4672 6.57964 18.375 6.35708 18.375 6.12501ZM25.2175 12.1056C25.6172 14.4819 25.2515 16.9237 24.173 19.0785C23.0945 21.2333 21.3591 22.9896 19.2174 24.0938C17.0757 25.198 14.6384 25.593 12.2576 25.2218C9.87674 24.8506 7.67546 23.7323 5.9716 22.0284C4.26774 20.3246 3.14945 18.1233 2.77821 15.7424C2.40697 13.3616 2.80197 10.9243 3.9062 8.7826C5.01043 6.64088 6.76673 4.9055 8.92154 3.82702C11.0763 2.74853 13.5181 2.38276 15.8944 2.78251C16.1215 2.82268 16.3236 2.95091 16.4567 3.13931C16.5898 3.3277 16.6431 3.56103 16.605 3.78852C16.5669 4.01602 16.4406 4.21929 16.2534 4.35411C16.0663 4.48893 15.8335 4.5444 15.6056 4.50845C14.2255 4.27628 12.8113 4.34764 11.4615 4.71758C10.1117 5.08752 8.85875 5.74715 7.78982 6.65056C6.72089 7.55397 5.86165 8.67946 5.27192 9.9487C4.68218 11.2179 4.37611 12.6005 4.375 14C4.37293 16.3562 5.2389 18.6305 6.8075 20.3886C7.78338 18.9745 9.15558 17.8804 10.7516 17.2441C9.89427 16.5688 9.26869 15.6432 8.96183 14.596C8.65497 13.5487 8.68208 12.4319 9.03939 11.4008C9.3967 10.3696 10.0665 9.47548 10.9555 8.84264C11.8446 8.2098 12.9087 7.86974 14 7.86974C15.0913 7.86974 16.1554 8.2098 17.0445 8.84264C17.9335 9.47548 18.6033 10.3696 18.9606 11.4008C19.3179 12.4319 19.345 13.5487 19.0382 14.596C18.7313 15.6432 18.1057 16.5688 17.2484 17.2441C18.8444 17.8804 20.2166 18.9745 21.1925 20.3886C22.7611 18.6305 23.6271 16.3562 23.625 14C23.625 13.462 23.5804 12.925 23.4916 12.3944C23.4714 12.2806 23.4741 12.1639 23.4993 12.0511C23.5245 11.9383 23.5718 11.8316 23.6385 11.7372C23.7052 11.6428 23.7899 11.5625 23.8878 11.501C23.9857 11.4396 24.0948 11.3981 24.2088 11.379C24.3228 11.3599 24.4395 11.3636 24.552 11.3899C24.6646 11.4162 24.7708 11.4645 24.8646 11.532C24.9584 11.5996 25.0379 11.6851 25.0985 11.7835C25.159 11.882 25.1995 11.9915 25.2175 12.1056ZM14 16.625C14.6922 16.625 15.3689 16.4197 15.9445 16.0352C16.5201 15.6506 16.9687 15.1039 17.2336 14.4644C17.4985 13.8249 17.5678 13.1211 17.4327 12.4422C17.2977 11.7633 16.9644 11.1396 16.4749 10.6501C15.9854 10.1607 15.3618 9.82731 14.6828 9.69226C14.0039 9.55722 13.3001 9.62653 12.6606 9.89143C12.0211 10.1563 11.4744 10.6049 11.0899 11.1805C10.7053 11.7561 10.5 12.4328 10.5 13.125C10.5 14.0533 10.8687 14.9435 11.5251 15.5999C12.1815 16.2563 13.0717 16.625 14 16.625ZM14 23.625C16.1365 23.6272 18.2124 22.9149 19.8975 21.6016C19.2645 20.6116 18.3925 19.7969 17.3618 19.2326C16.3312 18.6682 15.175 18.3724 14 18.3724C12.825 18.3724 11.6688 18.6682 10.6382 19.2326C9.60751 19.7969 8.73549 20.6116 8.1025 21.6016C9.78764 22.9149 11.8635 23.6272 14 23.625Z" fill="#18B188"/>
</svg>
