<svg width="28" height="28" viewBox="0 0 28 28" fill="none" xmlns="http://www.w3.org/2000/svg">
<path d="M25.352 20.4893C25.9691 19.2349 26.2767 17.8509 26.2489 16.4532C26.2212 15.0554 25.8589 13.6847 25.1925 12.4558C24.5261 11.2269 23.5749 10.1755 22.4187 9.38976C21.2624 8.60401 19.9347 8.10675 18.5467 7.93962C18.0864 6.86657 17.416 5.89649 16.5749 5.08656C15.7339 4.27662 14.7393 3.64321 13.6497 3.22363C12.56 2.80405 11.3975 2.60679 10.2304 2.64348C9.06338 2.68017 7.91549 2.95007 6.85437 3.43726C5.79325 3.92446 4.84038 4.6191 4.05188 5.48027C3.26339 6.34143 2.65523 7.3517 2.26323 8.45155C1.87123 9.5514 1.70332 10.7186 1.76939 11.8843C1.83547 13.0501 2.13419 14.1908 2.64796 15.2393L1.81015 18.1727C1.73539 18.4352 1.73211 18.7128 1.80066 18.9769C1.86921 19.2411 2.0071 19.4821 2.20005 19.675C2.393 19.868 2.63401 20.0059 2.89813 20.0744C3.16226 20.143 3.4399 20.1397 3.70234 20.0649L6.63577 19.2271C7.52096 19.6617 8.47312 19.9439 9.45218 20.0616C9.91888 21.1551 10.6035 22.1419 11.4643 22.9619C12.325 23.782 13.3439 24.418 14.4586 24.8312C15.5733 25.2444 16.7606 25.4261 17.9479 25.3652C19.1352 25.3044 20.2976 25.0022 21.3642 24.4771L24.2976 25.3149C24.5601 25.3897 24.8377 25.393 25.1019 25.3244C25.366 25.2559 25.607 25.118 25.7999 24.925C25.9929 24.7321 26.1308 24.4911 26.1993 24.2269C26.2679 23.9628 26.2646 23.6852 26.1898 23.4227L25.352 20.4893ZM6.72984 17.4159C6.64851 17.4159 6.56757 17.4269 6.48921 17.4487L3.60062 18.2745L4.4264 15.3859C4.48828 15.1658 4.46159 14.9303 4.35202 14.7296C3.54748 13.2525 3.30213 11.535 3.66095 9.89176C4.01976 8.2485 4.9587 6.78957 6.30572 5.7823C7.65273 4.77503 9.31761 4.28689 10.9953 4.40731C12.6729 4.52774 14.251 5.24868 15.4403 6.43801C16.6297 7.62735 17.3506 9.20543 17.471 10.8831C17.5915 12.5608 17.1033 14.2256 16.0961 15.5726C15.0888 16.9197 13.6299 17.8586 11.9866 18.2174C10.3433 18.5762 8.62582 18.3309 7.14874 17.5263C7.02068 17.4547 6.87656 17.4167 6.72984 17.4159ZM23.5736 20.6359L24.3994 23.5245L21.5108 22.6987C21.2907 22.6368 21.0552 22.6635 20.8545 22.7731C19.2416 23.6506 17.3486 23.8598 15.5829 23.3558C13.8172 22.8518 12.32 21.6748 11.4133 20.0781C12.6114 19.9533 13.7709 19.5822 14.8188 18.9882C15.8668 18.3941 16.7807 17.5899 17.5032 16.626C18.2257 15.6621 18.7411 14.5592 19.0173 13.3867C19.2934 12.2141 19.3242 10.9971 19.1078 9.81212C20.1563 10.0592 21.1336 10.545 21.9637 11.2315C22.7937 11.9181 23.4541 12.787 23.8935 13.7706C24.3328 14.7541 24.5392 15.8258 24.4966 16.9022C24.454 17.9785 24.1636 19.0306 23.648 19.9763C23.5375 20.1779 23.5108 20.4148 23.5736 20.6359Z" fill="#18B188"/>
</svg>
