<svg width="49" height="48" viewBox="0 0 49 48" fill="none" xmlns="http://www.w3.org/2000/svg">
<g clip-path="url(#clip0_1_1807)">
<path d="M0.333374 16C0.333374 7.16344 7.49682 0 16.3334 0H32.3334C41.1699 0 48.3334 7.16344 48.3334 16V32C48.3334 40.8366 41.1699 48 32.3334 48H16.3334C7.49682 48 0.333374 40.8366 0.333374 32V16Z" fill="#5F6766"/>
<g filter="url(#filter0_d_1_1807)">
<path d="M5.13336 16.8C5.13336 10.1726 10.5059 4.79999 17.1334 4.79999H31.5334C38.1608 4.79999 43.5334 10.1726 43.5334 16.8V31.2C43.5334 37.8274 38.1608 43.2 31.5334 43.2H17.1334C10.5059 43.2 5.13336 37.8274 5.13336 31.2V16.8Z" fill="#18B188"/>
<path d="M29.5834 20.3972V19.875C29.5834 17.5238 26.0368 15.75 21.3334 15.75C16.6299 15.75 13.0834 17.5238 13.0834 19.875V23.625C13.0834 25.5834 15.5443 27.1397 19.0834 27.6056V28.125C19.0834 30.4762 22.6299 32.25 27.3334 32.25C32.0368 32.25 35.5834 30.4762 35.5834 28.125V24.375C35.5834 22.4344 33.2002 20.8762 29.5834 20.3972ZM34.0834 24.375C34.0834 25.6144 31.1968 27 27.3334 27C26.9837 27 26.6368 26.9878 26.2946 26.9653C28.3168 26.2284 29.5834 25.0312 29.5834 23.625V21.9131C32.3837 22.3303 34.0834 23.4628 34.0834 24.375ZM19.0834 26.0859V23.8556C19.8294 23.9528 20.581 24.0011 21.3334 24C22.0857 24.0011 22.8373 23.9528 23.5834 23.8556V26.0859C22.8384 26.196 22.0864 26.2508 21.3334 26.25C20.5804 26.2508 19.8283 26.196 19.0834 26.0859ZM28.0834 22.3059V23.625C28.0834 24.4116 26.9199 25.2562 25.0834 25.7691V23.5781C26.2937 23.2847 27.3184 22.8478 28.0834 22.3059ZM21.3334 17.25C25.1968 17.25 28.0834 18.6356 28.0834 19.875C28.0834 21.1144 25.1968 22.5 21.3334 22.5C17.4699 22.5 14.5834 21.1144 14.5834 19.875C14.5834 18.6356 17.4699 17.25 21.3334 17.25ZM14.5834 23.625V22.3059C15.3484 22.8478 16.3731 23.2847 17.5834 23.5781V25.7691C15.7468 25.2562 14.5834 24.4116 14.5834 23.625ZM20.5834 28.125V27.7341C20.8299 27.7434 21.0793 27.75 21.3334 27.75C21.6971 27.75 22.0524 27.7378 22.4012 27.7172C22.7886 27.8559 23.1833 27.9736 23.5834 28.0697V30.2691C21.7468 29.7562 20.5834 28.9116 20.5834 28.125ZM25.0834 30.5859V28.35C25.8292 28.4503 26.5809 28.5004 27.3334 28.5C28.0857 28.5011 28.8373 28.4528 29.5834 28.3556V30.5859C28.0913 30.8047 26.5754 30.8047 25.0834 30.5859ZM31.0834 30.2691V28.0781C32.2937 27.7847 33.3184 27.3478 34.0834 26.8059V28.125C34.0834 28.9116 32.9199 29.7562 31.0834 30.2691Z" fill="#F4F6F6"/>
</g>
</g>
<path d="M0.385776 16C0.385776 7.19238 7.52576 0.0524018 16.3334 0.0524018H32.3334C41.141 0.0524018 48.281 7.19239 48.281 16V32C48.281 40.8076 41.141 47.9476 32.3334 47.9476H16.3334C7.52576 47.9476 0.385776 40.8076 0.385776 32V16Z" stroke="#C5C9C8" stroke-width="0.104804"/>
<defs>
<filter id="filter0_d_1_1807" x="1.13336" y="4.79999" width="46.4" height="46.4" filterUnits="userSpaceOnUse" color-interpolation-filters="sRGB">
<feFlood flood-opacity="0" result="BackgroundImageFix"/>
<feColorMatrix in="SourceAlpha" type="matrix" values="0 0 0 0 0 0 0 0 0 0 0 0 0 0 0 0 0 0 127 0" result="hardAlpha"/>
<feOffset dy="4"/>
<feGaussianBlur stdDeviation="2"/>
<feComposite in2="hardAlpha" operator="out"/>
<feColorMatrix type="matrix" values="0 0 0 0 0.0156863 0 0 0 0 0.12549 0 0 0 0 0.101961 0 0 0 0.25 0"/>
<feBlend mode="normal" in2="BackgroundImageFix" result="effect1_dropShadow_1_1807"/>
<feBlend mode="normal" in="SourceGraphic" in2="effect1_dropShadow_1_1807" result="shape"/>
</filter>
<clipPath id="clip0_1_1807">
<path d="M0.333374 16C0.333374 7.16344 7.49682 0 16.3334 0H32.3334C41.1699 0 48.3334 7.16344 48.3334 16V32C48.3334 40.8366 41.1699 48 32.3334 48H16.3334C7.49682 48 0.333374 40.8366 0.333374 32V16Z" fill="white"/>
</clipPath>
</defs>
</svg>
