<svg width="48" height="48" viewBox="0 0 48 48" fill="none" xmlns="http://www.w3.org/2000/svg">
<g clip-path="url(#clip0_1_1791)">
<path d="M0 16C0 7.16344 7.16344 0 16 0H32C40.8366 0 48 7.16344 48 16V32C48 40.8366 40.8366 48 32 48H16C7.16344 48 0 40.8366 0 32V16Z" fill="#5F6766"/>
<g filter="url(#filter0_d_1_1791)">
<path d="M4.79999 16.8C4.79999 10.1726 10.1726 4.79999 16.8 4.79999H31.2C37.8274 4.79999 43.2 10.1726 43.2 16.8V31.2C43.2 37.8274 37.8274 43.2 31.2 43.2H16.8C10.1726 43.2 4.79999 37.8274 4.79999 31.2V16.8Z" fill="#18B188"/>
<path d="M33.9375 19.5113C33.7263 19.2719 33.4666 19.0803 33.1757 18.949C32.8847 18.8178 32.5692 18.7499 32.25 18.75H27V17.25C27 16.2554 26.6049 15.3016 25.9017 14.5983C25.1984 13.8951 24.2446 13.5 23.25 13.5C23.1107 13.4999 22.9741 13.5386 22.8555 13.6118C22.7369 13.685 22.6411 13.7898 22.5787 13.9144L19.0369 21H15C14.6022 21 14.2206 21.158 13.9393 21.4393C13.658 21.7206 13.5 22.1022 13.5 22.5V30.75C13.5 31.1478 13.658 31.5294 13.9393 31.8107C14.2206 32.092 14.6022 32.25 15 32.25H31.125C31.6732 32.2502 32.2025 32.0503 32.6137 31.6878C33.0249 31.3253 33.2896 30.8251 33.3581 30.2812L34.4831 21.2812C34.523 20.9644 34.495 20.6427 34.4009 20.3375C34.3068 20.0323 34.1488 19.7507 33.9375 19.5113ZM15 22.5H18.75V30.75H15V22.5ZM32.9944 21.0938L31.8694 30.0938C31.8465 30.275 31.7583 30.4418 31.6212 30.5626C31.4842 30.6834 31.3077 30.7501 31.125 30.75H20.25V21.9272L23.6916 15.0431C24.2016 15.1452 24.6606 15.4209 24.9903 15.8233C25.32 16.2256 25.5001 16.7298 25.5 17.25V19.5C25.5 19.6989 25.579 19.8897 25.7197 20.0303C25.8603 20.171 26.0511 20.25 26.25 20.25H32.25C32.3564 20.25 32.4616 20.2726 32.5587 20.3163C32.6557 20.3601 32.7423 20.424 32.8127 20.5038C32.8831 20.5836 32.9357 20.6775 32.967 20.7792C32.9984 20.8809 33.0077 20.9882 32.9944 21.0938Z" fill="#F4F6F6"/>
</g>
</g>
<defs>
<filter id="filter0_d_1_1791" x="0.799988" y="4.79999" width="46.4" height="46.4" filterUnits="userSpaceOnUse" color-interpolation-filters="sRGB">
<feFlood flood-opacity="0" result="BackgroundImageFix"/>
<feColorMatrix in="SourceAlpha" type="matrix" values="0 0 0 0 0 0 0 0 0 0 0 0 0 0 0 0 0 0 127 0" result="hardAlpha"/>
<feOffset dy="4"/>
<feGaussianBlur stdDeviation="2"/>
<feComposite in2="hardAlpha" operator="out"/>
<feColorMatrix type="matrix" values="0 0 0 0 0.0156863 0 0 0 0 0.12549 0 0 0 0 0.101961 0 0 0 0.25 0"/>
<feBlend mode="normal" in2="BackgroundImageFix" result="effect1_dropShadow_1_1791"/>
<feBlend mode="normal" in="SourceGraphic" in2="effect1_dropShadow_1_1791" result="shape"/>
</filter>
<clipPath id="clip0_1_1791">
<path d="M0 16C0 7.16344 7.16344 0 16 0H32C40.8366 0 48 7.16344 48 16V32C48 40.8366 40.8366 48 32 48H16C7.16344 48 0 40.8366 0 32V16Z" fill="white"/>
</clipPath>
</defs>
</svg>
