<svg width="49" height="48" viewBox="0 0 49 48" fill="none" xmlns="http://www.w3.org/2000/svg">
<g clip-path="url(#clip0_1_1799)">
<path d="M0.666656 16C0.666656 7.16344 7.8301 0 16.6667 0H32.6667C41.5032 0 48.6667 7.16344 48.6667 16V32C48.6667 40.8366 41.5032 48 32.6667 48H16.6667C7.8301 48 0.666656 40.8366 0.666656 32V16Z" fill="#5F6766"/>
<g filter="url(#filter0_d_1_1799)">
<path d="M5.46666 16.8C5.46666 10.1726 10.8392 4.79999 17.4667 4.79999H31.8667C38.4941 4.79999 43.8667 10.1726 43.8667 16.8V31.2C43.8667 37.8274 38.4941 43.2 31.8667 43.2H17.4667C10.8392 43.2 5.46666 37.8274 5.46666 31.2V16.8Z" fill="#18B188"/>
<path d="M19.4167 21.75C19.4167 21.5511 19.4957 21.3603 19.6363 21.2197C19.777 21.079 19.9677 21 20.1667 21H29.1667C29.3656 21 29.5563 21.079 29.697 21.2197C29.8376 21.3603 29.9167 21.5511 29.9167 21.75C29.9167 21.9489 29.8376 22.1397 29.697 22.2803C29.5563 22.421 29.3656 22.5 29.1667 22.5H20.1667C19.9677 22.5 19.777 22.421 19.6363 22.2803C19.4957 22.1397 19.4167 21.9489 19.4167 21.75ZM20.1667 25.5H29.1667C29.3656 25.5 29.5563 25.421 29.697 25.2803C29.8376 25.1397 29.9167 24.9489 29.9167 24.75C29.9167 24.5511 29.8376 24.3603 29.697 24.2197C29.5563 24.079 29.3656 24 29.1667 24H20.1667C19.9677 24 19.777 24.079 19.6363 24.2197C19.4957 24.3603 19.4167 24.5511 19.4167 24.75C19.4167 24.9489 19.4957 25.1397 19.6363 25.2803C19.777 25.421 19.9677 25.5 20.1667 25.5ZM34.4167 17.25V31.5C34.4166 31.6278 34.3839 31.7535 34.3215 31.8651C34.2592 31.9768 34.1694 32.0706 34.0607 32.1378C33.9519 32.2049 33.8278 32.2432 33.7001 32.2489C33.5724 32.2546 33.4453 32.2275 33.331 32.1703L30.6667 30.8381L28.0023 32.1703C27.8981 32.2225 27.7832 32.2496 27.6667 32.2496C27.5501 32.2496 27.4352 32.2225 27.331 32.1703L24.6667 30.8381L22.0023 32.1703C21.8981 32.2225 21.7832 32.2496 21.6667 32.2496C21.5501 32.2496 21.4352 32.2225 21.331 32.1703L18.6667 30.8381L16.0023 32.1703C15.888 32.2275 15.7609 32.2546 15.6332 32.2489C15.5055 32.2432 15.3814 32.2049 15.2726 32.1378C15.1639 32.0706 15.0741 31.9768 15.0118 31.8651C14.9495 31.7535 14.9167 31.6278 14.9167 31.5V17.25C14.9167 16.8522 15.0747 16.4706 15.356 16.1893C15.6373 15.908 16.0188 15.75 16.4167 15.75H32.9167C33.3145 15.75 33.696 15.908 33.9773 16.1893C34.2586 16.4706 34.4167 16.8522 34.4167 17.25ZM32.9167 17.25H16.4167V30.2869L18.331 29.3287C18.4352 29.2766 18.5501 29.2495 18.6667 29.2495C18.7832 29.2495 18.8981 29.2766 19.0023 29.3287L21.6667 30.6619L24.331 29.3287C24.4352 29.2766 24.5501 29.2495 24.6667 29.2495C24.7832 29.2495 24.8981 29.2766 25.0023 29.3287L27.6667 30.6619L30.331 29.3287C30.4352 29.2766 30.5501 29.2495 30.6667 29.2495C30.7832 29.2495 30.8981 29.2766 31.0023 29.3287L32.9167 30.2869V17.25Z" fill="#F4F6F6"/>
</g>
</g>
<path d="M0.719058 16C0.719058 7.19238 7.85904 0.0524018 16.6667 0.0524018H32.6667C41.4743 0.0524018 48.6143 7.19239 48.6143 16V32C48.6143 40.8076 41.4743 47.9476 32.6667 47.9476H16.6667C7.85904 47.9476 0.719058 40.8076 0.719058 32V16Z" stroke="#C5C9C8" stroke-width="0.104804"/>
<defs>
<filter id="filter0_d_1_1799" x="1.46666" y="4.79999" width="46.4" height="46.4" filterUnits="userSpaceOnUse" color-interpolation-filters="sRGB">
<feFlood flood-opacity="0" result="BackgroundImageFix"/>
<feColorMatrix in="SourceAlpha" type="matrix" values="0 0 0 0 0 0 0 0 0 0 0 0 0 0 0 0 0 0 127 0" result="hardAlpha"/>
<feOffset dy="4"/>
<feGaussianBlur stdDeviation="2"/>
<feComposite in2="hardAlpha" operator="out"/>
<feColorMatrix type="matrix" values="0 0 0 0 0.0156863 0 0 0 0 0.12549 0 0 0 0 0.101961 0 0 0 0.25 0"/>
<feBlend mode="normal" in2="BackgroundImageFix" result="effect1_dropShadow_1_1799"/>
<feBlend mode="normal" in="SourceGraphic" in2="effect1_dropShadow_1_1799" result="shape"/>
</filter>
<clipPath id="clip0_1_1799">
<path d="M0.666656 16C0.666656 7.16344 7.8301 0 16.6667 0H32.6667C41.5032 0 48.6667 7.16344 48.6667 16V32C48.6667 40.8366 41.5032 48 32.6667 48H16.6667C7.8301 48 0.666656 40.8366 0.666656 32V16Z" fill="white"/>
</clipPath>
</defs>
</svg>
