<svg width="16" height="16" viewBox="0 0 16 16" fill="none" xmlns="http://www.w3.org/2000/svg">
<path d="M3.6126 5.26758H0.269531V15.9295H3.6126V5.26758Z" fill="#F5F4F4"/>
<path d="M12.6579 5.03268C12.5346 5.01727 12.4037 5.00957 12.2727 5.00186C10.4009 4.92483 9.34562 6.03416 8.97588 6.51178C8.87574 6.64275 8.82952 6.71978 8.82952 6.71978V5.2946H5.63281V15.9565H8.82952H8.97588C8.97588 14.8703 8.97588 13.7918 8.97588 12.7055C8.97588 12.1201 8.97588 11.5346 8.97588 10.9491C8.97588 10.225 8.92196 9.45459 9.284 8.79207C9.59212 8.23741 10.1467 7.96008 10.7707 7.96008C12.6194 7.96008 12.6579 9.63177 12.6579 9.78585C12.6579 9.79355 12.6579 9.80125 12.6579 9.80125V16.0027H16.0009V9.0463C16.0009 6.66586 14.7916 5.26379 12.6579 5.03268Z" fill="#F5F4F4"/>
<path d="M1.93918 3.88656C3.01124 3.88656 3.88032 3.0174 3.88032 1.94523C3.88032 0.873068 3.01124 0.00390625 1.93918 0.00390625C0.867119 0.00390625 -0.00195312 0.873068 -0.00195312 1.94523C-0.00195312 3.0174 0.867119 3.88656 1.93918 3.88656Z" fill="#F5F4F4"/>
</svg>
