<svg width="21" height="24" viewBox="0 0 21 24" fill="none" xmlns="http://www.w3.org/2000/svg">
<path d="M6.48424 13.4268C6.2306 12.6538 5.80024 11.951 5.22761 11.3749C4.65524 10.7984 3.9563 10.3637 3.18581 10.1058L0.659709 9.28058C0.466449 9.21039 0.299424 9.0821 0.181379 8.91318C0.0633345 8.74426 0 8.54292 0 8.33657C0 8.13022 0.0633345 7.92887 0.181379 7.75996C0.299424 7.59104 0.466449 7.46275 0.659709 7.39256L3.18581 6.56736C3.93399 6.30823 4.61348 5.88124 5.17263 5.31885C5.73179 4.75647 6.15589 4.07348 6.41269 3.32182L6.43471 3.25919L7.25656 0.722802C7.32527 0.527297 7.45268 0.358003 7.62123 0.238253C7.78978 0.118505 7.99118 0.0541992 8.19766 0.0541992C8.40414 0.0541992 8.60554 0.118505 8.77409 0.238253C8.94264 0.358003 9.07005 0.527297 9.13875 0.722802L9.96061 3.25919C10.2168 4.02993 10.6482 4.73017 11.2207 5.30439C11.7933 5.87861 12.4911 6.31102 13.259 6.56736L15.787 7.39256L15.8365 7.40545C16.0298 7.47565 16.1968 7.60393 16.3148 7.77285C16.4329 7.94177 16.4962 8.14311 16.4962 8.34946C16.4962 8.55581 16.4329 8.75716 16.3148 8.92607C16.1968 9.09499 16.0298 9.22328 15.8365 9.29347L13.3086 10.1187C12.5403 10.3742 11.842 10.8064 11.2693 11.3807C10.6967 11.955 10.2655 12.6557 10.0101 13.4268L9.19012 15.9632C9.1218 16.1594 8.99444 16.3293 8.82566 16.4496C8.65689 16.5699 8.45506 16.6345 8.24811 16.6345C8.04115 16.6345 7.83932 16.5699 7.67055 16.4496C7.50178 16.3293 7.37441 16.1594 7.30609 15.9632L6.48424 13.4268Z" fill="#C7BFF3"/>
<path d="M19.7733 18.8662L18.3699 18.4094C17.9429 18.2671 17.5548 18.0267 17.2366 17.7072C16.9184 17.3877 16.679 16.9981 16.5373 16.5692L16.0805 15.162C16.0425 15.0532 15.9718 14.9589 15.8781 14.8922C15.7845 14.8255 15.6725 14.7897 15.5577 14.7897C15.4428 14.7897 15.3309 14.8255 15.2372 14.8922C15.1435 14.9589 15.0728 15.0532 15.0348 15.162L14.578 16.5711C14.4387 16.9962 14.2035 17.3833 13.8907 17.7022C13.5779 18.021 13.196 18.263 12.7747 18.4094L11.3695 18.8662C11.2611 18.9043 11.1673 18.9753 11.1008 19.0693C11.0344 19.1634 10.9987 19.2758 10.9987 19.3911C10.9987 19.5064 11.0344 19.6189 11.1008 19.7129C11.1673 19.8069 11.2611 19.878 11.3695 19.9161L12.7747 20.3747C13.2021 20.5178 13.5902 20.7592 13.9081 21.0796C14.2259 21.4001 14.4648 21.7907 14.6056 22.2204L15.0642 23.6276C15.1022 23.7365 15.1729 23.8307 15.2665 23.8974C15.3602 23.9641 15.4722 23.9999 15.587 23.9999C15.7018 23.9999 15.8138 23.9641 15.9075 23.8974C16.0012 23.8307 16.0719 23.7365 16.1098 23.6276L16.5648 22.2204C16.7069 21.7918 16.9465 21.4023 17.2646 21.0829C17.5827 20.7635 17.9706 20.5229 18.3975 20.3803L19.8027 19.9235C19.9111 19.8853 20.0049 19.8143 20.0714 19.7203C20.1378 19.6262 20.1735 19.5138 20.1735 19.3985C20.1735 19.2832 20.1378 19.1708 20.0714 19.0767C20.0049 18.9827 19.9111 18.9117 19.8027 18.8735L19.7733 18.8662Z" fill="#C7BFF3"/>
</svg>
