<svg width="16" height="24" viewBox="0 0 16 24" fill="none" xmlns="http://www.w3.org/2000/svg">
<path d="M14 10H2C1.86739 10 1.74021 10.0527 1.64645 10.1464C1.55268 10.2402 1.5 10.3674 1.5 10.5V19C1.5 19.2652 1.60536 19.5196 1.79289 19.7071C1.98043 19.8946 2.23478 20 2.5 20H13.5C13.7652 20 14.0196 19.8946 14.2071 19.7071C14.3946 19.5196 14.5 19.2652 14.5 19V10.5C14.5 10.3674 14.4473 10.2402 14.3536 10.1464C14.2598 10.0527 14.1326 10 14 10ZM12.7144 11L8 15.3219L3.28562 11H12.7144ZM13.5 19H2.5V11.6369L7.66187 16.3687C7.75412 16.4534 7.87478 16.5004 8 16.5004C8.12522 16.5004 8.24588 16.4534 8.33813 16.3687L13.5 11.6369V19Z" fill="#C5C9C8"/>
</svg>
