<svg width="40" height="40" viewBox="0 0 40 40" fill="none" xmlns="http://www.w3.org/2000/svg">
<path d="M7 11.75C7 11.0596 7.76538 10.5 8.70953 10.5H31.3405C32.2846 10.5 33.05 11.0596 33.05 11.75C33.05 12.4404 32.2846 13 31.3405 13H8.70953C7.76539 13 7 12.4404 7 11.75Z" fill="white"/>
<path d="M12 20.0835C12 19.3931 12.617 18.8335 13.3781 18.8335H31.6219C32.383 18.8335 33 19.3931 33 20.0835C33 20.7739 32.383 21.3335 31.6219 21.3335H13.3781C12.617 21.3335 12 20.7739 12 20.0835Z" fill="white"/>
<path d="M7 28.4165C7 27.7261 7.76538 27.1665 8.70953 27.1665H31.3405C32.2846 27.1665 33.05 27.7261 33.05 28.4165C33.05 29.1069 32.2846 29.6665 31.3405 29.6665H8.70953C7.76539 29.6665 7 29.1069 7 28.4165Z" fill="white"/>
</svg>
