<svg width="80" height="80" viewBox="0 0 80 80" fill="none" xmlns="http://www.w3.org/2000/svg">
<g filter="url(#filter0_d_1_1778)">
<path d="M16 28C16 19.1634 23.1634 12 32 12H48C56.8366 12 64 19.1634 64 28V44C64 52.8366 56.8366 60 48 60H32C23.1634 60 16 52.8366 16 44V28Z" fill="#EFF0F0" shape-rendering="crispEdges"/>
<path d="M16.0524 28C16.0524 19.1924 23.1924 12.0524 32 12.0524H48C56.8076 12.0524 63.9476 19.1924 63.9476 28V44C63.9476 52.8076 56.8076 59.9476 48 59.9476H32C23.1924 59.9476 16.0524 52.8076 16.0524 44V28Z" stroke="#C5C9C8" stroke-width="0.104804" shape-rendering="crispEdges"/>
<g filter="url(#filter1_d_1_1778)">
<path d="M20.7998 28.8C20.7998 22.1726 26.1724 16.8 32.7998 16.8H47.1998C53.8272 16.8 59.1998 22.1726 59.1998 28.8V43.2C59.1998 49.8274 53.8272 55.2 47.1998 55.2H32.7998C26.1724 55.2 20.7998 49.8274 20.7998 43.2V28.8Z" fill="#2A3735"/>
<g clip-path="url(#clip0_1_1778)">
<path fill-rule="evenodd" clip-rule="evenodd" d="M28.9991 35.6692C28.9991 29.5385 33.8019 24.999 39.9991 24.999C46.1963 24.999 50.9991 29.5385 50.9991 35.6692C50.9991 41.8 46.1963 46.3395 39.9991 46.3395C38.8858 46.3395 37.8168 46.1934 36.8142 45.9167C36.6194 45.8636 36.4136 45.8791 36.2276 45.961L34.0453 46.9238C33.4743 47.1739 32.8303 46.7688 32.8103 46.1447L32.7506 44.1882C32.7417 43.9469 32.6333 43.7234 32.454 43.5618C30.3138 41.6473 28.9991 38.8763 28.9991 35.6692ZM36.6267 33.6624L33.3953 38.7883C33.0832 39.2797 33.6897 39.8352 34.1523 39.4833L37.6249 36.8473C37.8595 36.6702 38.1826 36.668 38.4195 36.8451L40.9891 38.7728C41.7593 39.3505 42.8615 39.1469 43.375 38.3324L46.6042 33.2086C46.9162 32.7173 46.3098 32.1618 45.8472 32.5137L42.3768 35.1475C42.1422 35.3245 41.8191 35.3268 41.5822 35.1497L39.0126 33.2219C38.2424 32.6443 37.1402 32.8479 36.6267 33.6624Z" fill="#F4F6F6"/>
</g>
</g>
</g>
<defs>
<filter id="filter0_d_1_1778" x="0" y="0" width="80" height="80" filterUnits="userSpaceOnUse" color-interpolation-filters="sRGB">
<feFlood flood-opacity="0" result="BackgroundImageFix"/>
<feColorMatrix in="SourceAlpha" type="matrix" values="0 0 0 0 0 0 0 0 0 0 0 0 0 0 0 0 0 0 127 0" result="hardAlpha"/>
<feOffset dy="4"/>
<feGaussianBlur stdDeviation="8"/>
<feComposite in2="hardAlpha" operator="out"/>
<feColorMatrix type="matrix" values="0 0 0 0 0.101961 0 0 0 0 0.14902 0 0 0 0 0.145098 0 0 0 0.15 0"/>
<feBlend mode="normal" in2="BackgroundImageFix" result="effect1_dropShadow_1_1778"/>
<feBlend mode="normal" in="SourceGraphic" in2="effect1_dropShadow_1_1778" result="shape"/>
</filter>
<filter id="filter1_d_1_1778" x="16.7998" y="16.8" width="46.4" height="46.4" filterUnits="userSpaceOnUse" color-interpolation-filters="sRGB">
<feFlood flood-opacity="0" result="BackgroundImageFix"/>
<feColorMatrix in="SourceAlpha" type="matrix" values="0 0 0 0 0 0 0 0 0 0 0 0 0 0 0 0 0 0 127 0" result="hardAlpha"/>
<feOffset dy="4"/>
<feGaussianBlur stdDeviation="2"/>
<feComposite in2="hardAlpha" operator="out"/>
<feColorMatrix type="matrix" values="0 0 0 0 0.0156863 0 0 0 0 0.12549 0 0 0 0 0.101961 0 0 0 0.25 0"/>
<feBlend mode="normal" in2="BackgroundImageFix" result="effect1_dropShadow_1_1778"/>
<feBlend mode="normal" in="SourceGraphic" in2="effect1_dropShadow_1_1778" result="shape"/>
</filter>
<clipPath id="clip0_1_1778">
<rect width="22" height="22" fill="white" transform="translate(28.9998 25)"/>
</clipPath>
</defs>
</svg>
