<svg width="48" height="48" viewBox="0 0 48 48" fill="none" xmlns="http://www.w3.org/2000/svg">
<g clip-path="url(#clip0_101_1380)">
<path d="M0 16C0 7.16344 7.16344 0 16 0H32C40.8366 0 48 7.16344 48 16V32C48 40.8366 40.8366 48 32 48H16C7.16344 48 0 40.8366 0 32V16Z" fill="#5F6766"/>
<g filter="url(#filter0_d_101_1380)">
<path d="M4.8 16.8C4.8 10.1726 10.1726 4.79999 16.8 4.79999H31.2C37.8274 4.79999 43.2 10.1726 43.2 16.8V31.2C43.2 37.8274 37.8274 43.2 31.2 43.2H16.8C10.1726 43.2 4.8 37.8274 4.8 31.2V16.8Z" fill="#18B188"/>
<path d="M33.3984 17.9128L32.9616 17.6606C33.0128 17.3893 33.0128 17.1107 32.9616 16.8394L33.3984 16.5872C33.5707 16.4877 33.6965 16.3239 33.748 16.1317C33.7995 15.9396 33.7726 15.7348 33.6731 15.5625C33.5737 15.3902 33.4098 15.2645 33.2177 15.2129C33.0255 15.1614 32.8207 15.1884 32.6484 15.2878L32.2106 15.5409C32.0011 15.3612 31.7602 15.2217 31.5 15.1294V14.625C31.5 14.4261 31.421 14.2353 31.2803 14.0947C31.1397 13.954 30.9489 13.875 30.75 13.875C30.5511 13.875 30.3603 13.954 30.2197 14.0947C30.079 14.2353 30 14.4261 30 14.625V15.1294C29.7398 15.2217 29.4989 15.3612 29.2894 15.5409L28.8516 15.2878C28.7662 15.2386 28.6721 15.2066 28.5744 15.1938C28.4767 15.1809 28.3775 15.1874 28.2823 15.2129C28.1872 15.2384 28.098 15.2824 28.0198 15.3424C27.9417 15.4024 27.8761 15.4772 27.8269 15.5625C27.7776 15.6478 27.7457 15.742 27.7328 15.8397C27.72 15.9373 27.7265 16.0366 27.752 16.1317C27.7775 16.2269 27.8215 16.3161 27.8815 16.3942C27.9415 16.4724 28.0162 16.5379 28.1016 16.5872L28.5384 16.8394C28.4872 17.1107 28.4872 17.3893 28.5384 17.6606L28.1016 17.9128C27.9585 17.9953 27.8467 18.1228 27.7834 18.2753C27.7202 18.4279 27.7091 18.5971 27.7518 18.7566C27.7946 18.9161 27.8888 19.0571 28.0198 19.1576C28.1508 19.2581 28.3114 19.3126 28.4766 19.3125C28.6082 19.3129 28.7377 19.2783 28.8516 19.2122L29.2894 18.9591C29.4989 19.1388 29.7398 19.2783 30 19.3706V19.875C30 20.0739 30.079 20.2647 30.2197 20.4053C30.3603 20.546 30.5511 20.625 30.75 20.625C30.9489 20.625 31.1397 20.546 31.2803 20.4053C31.421 20.2647 31.5 20.0739 31.5 19.875V19.3706C31.7602 19.2783 32.0011 19.1388 32.2106 18.9591L32.6484 19.2122C32.7623 19.2783 32.8917 19.3129 33.0234 19.3125C33.1886 19.3126 33.3491 19.2581 33.4802 19.1576C33.6112 19.0571 33.7054 18.9161 33.7482 18.7566C33.7909 18.5971 33.7798 18.4279 33.7166 18.2753C33.6533 18.1228 33.5415 17.9953 33.3984 17.9128ZM30 17.25C30 17.1017 30.044 16.9567 30.1264 16.8333C30.2088 16.71 30.3259 16.6139 30.463 16.5571C30.6 16.5003 30.7508 16.4855 30.8963 16.5144C31.0418 16.5433 31.1754 16.6148 31.2803 16.7197C31.3852 16.8246 31.4566 16.9582 31.4856 17.1037C31.5145 17.2492 31.4997 17.4 31.4429 17.537C31.3861 17.6741 31.29 17.7912 31.1667 17.8736C31.0433 17.956 30.8983 18 30.75 18C30.5511 18 30.3603 17.921 30.2197 17.7803C30.079 17.6397 30 17.4489 30 17.25ZM32.7516 21.7603C32.5554 21.7931 32.3803 21.9026 32.2648 22.0645C32.1493 22.2264 32.1028 22.4276 32.1356 22.6238C32.2118 23.0785 32.25 23.5389 32.25 24C32.2518 26.0196 31.5095 27.969 30.165 29.4759C29.3285 28.2638 28.1524 27.3261 26.7844 26.7806C27.5192 26.2019 28.0554 25.4085 28.3184 24.5108C28.5814 23.6132 28.5582 22.6559 28.2519 21.7721C27.9457 20.8883 27.3716 20.1218 26.6096 19.5794C25.8475 19.037 24.9354 18.7455 24 18.7455C23.0646 18.7455 22.1525 19.037 21.3904 19.5794C20.6284 20.1218 20.0543 20.8883 19.748 21.7721C19.4418 22.6559 19.4185 23.6132 19.6816 24.5108C19.9446 25.4085 20.4808 26.2019 21.2156 26.7806C19.8476 27.3261 18.6715 28.2638 17.835 29.4759C16.78 28.2872 16.0909 26.8189 15.8505 25.2479C15.6101 23.6768 15.8287 22.0697 16.4799 20.6198C17.1311 19.17 18.1872 17.9391 19.5213 17.0752C20.8554 16.2112 22.4106 15.7511 24 15.75C24.4611 15.7499 24.9215 15.7882 25.3762 15.8644C25.5715 15.8952 25.7711 15.8476 25.9315 15.7321C26.0919 15.6165 26.2002 15.4423 26.2329 15.2473C26.2655 15.0523 26.2198 14.8523 26.1057 14.6908C25.9917 14.5293 25.8184 14.4194 25.6237 14.385C23.587 14.0424 21.494 14.3559 19.647 15.2803C17.8001 16.2047 16.2946 17.6922 15.3482 19.5279C14.4017 21.3637 14.0631 23.4528 14.3813 25.4935C14.6995 27.5342 15.6581 29.421 17.1185 30.8815C18.579 32.3419 20.4658 33.3005 22.5065 33.6187C24.5472 33.9369 26.6363 33.5983 28.4721 32.6518C30.3078 31.7053 31.7953 30.1999 32.7197 28.353C33.6441 26.506 33.9576 24.413 33.615 22.3763C33.5822 22.1801 33.4728 22.005 33.3108 21.8895C33.1489 21.774 32.9477 21.7275 32.7516 21.7603ZM21 23.25C21 22.6567 21.1759 22.0766 21.5056 21.5833C21.8352 21.0899 22.3038 20.7054 22.8519 20.4784C23.4001 20.2513 24.0033 20.1919 24.5853 20.3076C25.1672 20.4234 25.7018 20.7091 26.1213 21.1287C26.5409 21.5482 26.8266 22.0828 26.9424 22.6647C27.0581 23.2467 26.9987 23.8499 26.7716 24.3981C26.5446 24.9462 26.1601 25.4148 25.6667 25.7444C25.1734 26.0741 24.5933 26.25 24 26.25C23.2043 26.25 22.4413 25.9339 21.8787 25.3713C21.3161 24.8087 21 24.0457 21 23.25ZM18.945 30.5156C19.4876 29.6671 20.235 28.9688 21.1184 28.4851C22.0018 28.0013 22.9928 27.7478 24 27.7478C25.0072 27.7478 25.9981 28.0013 26.8816 28.4851C27.765 28.9688 28.5124 29.6671 29.055 30.5156C27.6097 31.6397 25.831 32.2499 24 32.2499C22.169 32.2499 20.3903 31.6397 18.945 30.5156Z" fill="#F4F6F6"/>
</g>
</g>
<path d="M0.0524018 16C0.0524018 7.19238 7.19239 0.0524018 16 0.0524018H32C40.8076 0.0524018 47.9476 7.19239 47.9476 16V32C47.9476 40.8076 40.8076 47.9476 32 47.9476H16C7.19238 47.9476 0.0524018 40.8076 0.0524018 32V16Z" stroke="#C5C9C8" stroke-width="0.104804"/>
<defs>
<filter id="filter0_d_101_1380" x="0.800003" y="4.79999" width="46.4" height="46.4" filterUnits="userSpaceOnUse" color-interpolation-filters="sRGB">
<feFlood flood-opacity="0" result="BackgroundImageFix"/>
<feColorMatrix in="SourceAlpha" type="matrix" values="0 0 0 0 0 0 0 0 0 0 0 0 0 0 0 0 0 0 127 0" result="hardAlpha"/>
<feOffset dy="4"/>
<feGaussianBlur stdDeviation="2"/>
<feComposite in2="hardAlpha" operator="out"/>
<feColorMatrix type="matrix" values="0 0 0 0 0.0156863 0 0 0 0 0.12549 0 0 0 0 0.101961 0 0 0 0.25 0"/>
<feBlend mode="normal" in2="BackgroundImageFix" result="effect1_dropShadow_101_1380"/>
<feBlend mode="normal" in="SourceGraphic" in2="effect1_dropShadow_101_1380" result="shape"/>
</filter>
<clipPath id="clip0_101_1380">
<path d="M0 16C0 7.16344 7.16344 0 16 0H32C40.8366 0 48 7.16344 48 16V32C48 40.8366 40.8366 48 32 48H16C7.16344 48 0 40.8366 0 32V16Z" fill="white"/>
</clipPath>
</defs>
</svg>
