<svg width="48" height="48" viewBox="0 0 48 48" fill="none" xmlns="http://www.w3.org/2000/svg">
<g clip-path="url(#clip0_101_1419)">
<path d="M0 16C0 7.16344 7.16344 0 16 0H32C40.8366 0 48 7.16344 48 16V32C48 40.8366 40.8366 48 32 48H16C7.16344 48 0 40.8366 0 32V16Z" fill="#F4F6F6"/>
<g filter="url(#filter0_d_101_1419)">
<path d="M4.7998 16.8C4.7998 10.1726 10.1724 4.79999 16.7998 4.79999H31.1998C37.8272 4.79999 43.1998 10.1726 43.1998 16.8V31.2C43.1998 37.8274 37.8272 43.2 31.1998 43.2H16.7998C10.1724 43.2 4.7998 37.8274 4.7998 31.2V16.8Z" fill="#0A5042"/>
<path d="M21.9373 22.5C21.9373 22.3508 21.9966 22.2077 22.1021 22.1023C22.2075 21.9968 22.3506 21.9375 22.4998 21.9375H25.4998C25.649 21.9375 25.7921 21.9968 25.8975 22.1023C26.003 22.2077 26.0623 22.3508 26.0623 22.5C26.0623 22.6492 26.003 22.7923 25.8975 22.8977C25.7921 23.0032 25.649 23.0625 25.4998 23.0625H22.4998C22.3506 23.0625 22.2075 23.0032 22.1021 22.8977C21.9966 22.7923 21.9373 22.6492 21.9373 22.5ZM33.5623 18.75V30.75C33.5623 31.0981 33.424 31.4319 33.1779 31.6781C32.9317 31.9242 32.5979 32.0625 32.2498 32.0625H15.7498C15.4017 32.0625 15.0679 31.9242 14.8217 31.6781C14.5756 31.4319 14.4373 31.0981 14.4373 30.75V18.75C14.4373 18.4019 14.5756 18.0681 14.8217 17.8219C15.0679 17.5758 15.4017 17.4375 15.7498 17.4375H19.6873V16.5C19.6873 15.953 19.9046 15.4284 20.2914 15.0416C20.6782 14.6548 21.2028 14.4375 21.7498 14.4375H26.2498C26.7968 14.4375 27.3214 14.6548 27.7082 15.0416C28.095 15.4284 28.3123 15.953 28.3123 16.5V17.4375H32.2498C32.5979 17.4375 32.9317 17.5758 33.1779 17.8219C33.424 18.0681 33.5623 18.4019 33.5623 18.75ZM20.8123 17.4375H27.1873V16.5C27.1873 16.2514 27.0885 16.0129 26.9127 15.8371C26.7369 15.6613 26.4984 15.5625 26.2498 15.5625H21.7498C21.5012 15.5625 21.2627 15.6613 21.0869 15.8371C20.9111 16.0129 20.8123 16.2514 20.8123 16.5V17.4375ZM15.5623 18.75V22.7616C18.1453 24.1892 21.0485 24.9379 23.9998 24.9375C26.9513 24.938 29.8545 24.189 32.4373 22.7606V18.75C32.4373 18.7003 32.4175 18.6526 32.3824 18.6174C32.3472 18.5823 32.2995 18.5625 32.2498 18.5625H15.7498C15.7001 18.5625 15.6524 18.5823 15.6172 18.6174C15.5821 18.6526 15.5623 18.7003 15.5623 18.75ZM32.4373 30.75V24.0347C29.8244 25.3674 26.933 26.0623 23.9998 26.0625C21.0667 26.0628 18.1752 25.3682 15.5623 24.0356V30.75C15.5623 30.7997 15.5821 30.8474 15.6172 30.8826C15.6524 30.9177 15.7001 30.9375 15.7498 30.9375H32.2498C32.2995 30.9375 32.3472 30.9177 32.3824 30.8826C32.4175 30.8474 32.4373 30.7997 32.4373 30.75Z" fill="#F4F6F6"/>
</g>
</g>
<path d="M0.25 16C0.25 7.30151 7.30152 0.25 16 0.25H32C40.6985 0.25 47.75 7.30152 47.75 16V32C47.75 40.6985 40.6985 47.75 32 47.75H16C7.30151 47.75 0.25 40.6985 0.25 32V16Z" stroke="#C5C9C8" stroke-width="0.5"/>
<defs>
<filter id="filter0_d_101_1419" x="0.799805" y="4.79999" width="46.4" height="46.4" filterUnits="userSpaceOnUse" color-interpolation-filters="sRGB">
<feFlood flood-opacity="0" result="BackgroundImageFix"/>
<feColorMatrix in="SourceAlpha" type="matrix" values="0 0 0 0 0 0 0 0 0 0 0 0 0 0 0 0 0 0 127 0" result="hardAlpha"/>
<feOffset dy="4"/>
<feGaussianBlur stdDeviation="2"/>
<feComposite in2="hardAlpha" operator="out"/>
<feColorMatrix type="matrix" values="0 0 0 0 0.0156863 0 0 0 0 0.12549 0 0 0 0 0.101961 0 0 0 0.25 0"/>
<feBlend mode="normal" in2="BackgroundImageFix" result="effect1_dropShadow_101_1419"/>
<feBlend mode="normal" in="SourceGraphic" in2="effect1_dropShadow_101_1419" result="shape"/>
</filter>
<clipPath id="clip0_101_1419">
<path d="M0 16C0 7.16344 7.16344 0 16 0H32C40.8366 0 48 7.16344 48 16V32C48 40.8366 40.8366 48 32 48H16C7.16344 48 0 40.8366 0 32V16Z" fill="white"/>
</clipPath>
</defs>
</svg>
