<svg width="48" height="48" viewBox="0 0 48 48" fill="none" xmlns="http://www.w3.org/2000/svg">
<g clip-path="url(#clip0_101_1341)">
<path d="M0 16C0 7.16344 7.16344 0 16 0H32C40.8366 0 48 7.16344 48 16V32C48 40.8366 40.8366 48 32 48H16C7.16344 48 0 40.8366 0 32V16Z" fill="#F4F6F6"/>
<g filter="url(#filter0_d_101_1341)">
<path d="M4.7998 16.8C4.7998 10.1726 10.1724 4.79999 16.7998 4.79999H31.1998C37.8272 4.79999 43.1998 10.1726 43.1998 16.8V31.2C43.1998 37.8274 37.8272 43.2 31.1998 43.2H16.7998C10.1724 43.2 4.7998 37.8274 4.7998 31.2V16.8Z" fill="#0A5042"/>
<path d="M30.4583 24.2756L25.6161 22.4944C25.5917 22.4851 25.5694 22.4707 25.5509 22.4523C25.5323 22.4339 25.5178 22.4118 25.5083 22.3875L23.727 17.5444C23.6347 17.294 23.4678 17.078 23.2489 16.9254C23.0299 16.7728 22.7695 16.691 22.5026 16.691C22.2358 16.691 21.9753 16.7728 21.7564 16.9254C21.5375 17.078 21.3706 17.294 21.2783 17.5444L19.497 22.3866C19.4877 22.411 19.4734 22.4332 19.455 22.4518C19.4366 22.4703 19.4145 22.4848 19.3901 22.4944L14.547 24.2756C14.2966 24.368 14.0806 24.5349 13.928 24.7538C13.7754 24.9727 13.6936 25.2331 13.6936 25.5C13.6936 25.7669 13.7754 26.0273 13.928 26.2462C14.0806 26.4651 14.2966 26.632 14.547 26.7244L19.3892 28.5056C19.4136 28.5149 19.4358 28.5293 19.4544 28.5477C19.473 28.5661 19.4875 28.5882 19.497 28.6125L21.2783 33.4556C21.3706 33.706 21.5375 33.922 21.7564 34.0746C21.9753 34.2272 22.2358 34.309 22.5026 34.309C22.7695 34.309 23.0299 34.2272 23.2489 34.0746C23.4678 33.922 23.6347 33.706 23.727 33.4556L25.5083 28.6134C25.5176 28.589 25.5319 28.5668 25.5503 28.5482C25.5687 28.5297 25.5908 28.5152 25.6151 28.5056L30.4583 26.7244C30.7086 26.632 30.9247 26.4651 31.0773 26.2462C31.2299 26.0273 31.3117 25.7669 31.3117 25.5C31.3117 25.2331 31.2299 24.9727 31.0773 24.7538C30.9247 24.5349 30.7086 24.368 30.4583 24.2756ZM30.0692 25.6688L25.2261 27.45C25.0488 27.5155 24.8879 27.6186 24.7544 27.7523C24.6209 27.886 24.5179 28.0471 24.4526 28.2244L22.6714 33.0666C22.6586 33.101 22.6356 33.1307 22.6054 33.1517C22.5752 33.1727 22.5394 33.1839 22.5026 33.1839C22.4659 33.1839 22.43 33.1727 22.3999 33.1517C22.3697 33.1307 22.3467 33.101 22.3339 33.0666L20.5526 28.2234C20.4869 28.0465 20.3838 27.8858 20.2503 27.7523C20.1169 27.6188 19.9562 27.5157 19.7792 27.45L14.937 25.6688C14.9026 25.656 14.8729 25.6329 14.8519 25.6028C14.8309 25.5726 14.8197 25.5367 14.8197 25.5C14.8197 25.4633 14.8309 25.4274 14.8519 25.3972C14.8729 25.3671 14.9026 25.344 14.937 25.3312L19.7801 23.55C19.9574 23.4845 20.1183 23.3814 20.2518 23.2477C20.3854 23.114 20.4883 22.9529 20.5536 22.7756L22.3348 17.9334C22.3476 17.899 22.3706 17.8693 22.4008 17.8483C22.431 17.8273 22.4668 17.8161 22.5036 17.8161C22.5403 17.8161 22.5762 17.8273 22.6064 17.8483C22.6365 17.8693 22.6595 17.899 22.6723 17.9334L24.4536 22.7766C24.5191 22.9538 24.6222 23.1147 24.7559 23.2483C24.8896 23.3818 25.0506 23.4847 25.228 23.55L30.0701 25.3312C30.1046 25.344 30.1343 25.3671 30.1553 25.3972C30.1763 25.4274 30.1875 25.4633 30.1875 25.5C30.1875 25.5367 30.1763 25.5726 30.1553 25.6028C30.1343 25.6329 30.1046 25.656 30.0701 25.6688H30.0692ZM25.6873 15.75C25.6873 15.6008 25.7466 15.4577 25.8521 15.3523C25.9576 15.2468 26.1006 15.1875 26.2498 15.1875H27.9373V13.5C27.9373 13.3508 27.9966 13.2077 28.1021 13.1023C28.2076 12.9968 28.3506 12.9375 28.4998 12.9375C28.649 12.9375 28.7921 12.9968 28.8976 13.1023C29.0031 13.2077 29.0623 13.3508 29.0623 13.5V15.1875H30.7498C30.899 15.1875 31.0421 15.2468 31.1476 15.3523C31.2531 15.4577 31.3123 15.6008 31.3123 15.75C31.3123 15.8992 31.2531 16.0423 31.1476 16.1477C31.0421 16.2532 30.899 16.3125 30.7498 16.3125H29.0623V18C29.0623 18.1492 29.0031 18.2923 28.8976 18.3977C28.7921 18.5032 28.649 18.5625 28.4998 18.5625C28.3506 18.5625 28.2076 18.5032 28.1021 18.3977C27.9966 18.2923 27.9373 18.1492 27.9373 18V16.3125H26.2498C26.1006 16.3125 25.9576 16.2532 25.8521 16.1477C25.7466 16.0423 25.6873 15.8992 25.6873 15.75ZM35.0623 20.25C35.0623 20.3992 35.0031 20.5423 34.8976 20.6477C34.7921 20.7532 34.649 20.8125 34.4998 20.8125H33.5623V21.75C33.5623 21.8992 33.5031 22.0423 33.3976 22.1477C33.2921 22.2532 33.149 22.3125 32.9998 22.3125C32.8506 22.3125 32.7076 22.2532 32.6021 22.1477C32.4966 22.0423 32.4373 21.8992 32.4373 21.75V20.8125H31.4998C31.3506 20.8125 31.2076 20.7532 31.1021 20.6477C30.9966 20.5423 30.9373 20.3992 30.9373 20.25C30.9373 20.1008 30.9966 19.9577 31.1021 19.8523C31.2076 19.7468 31.3506 19.6875 31.4998 19.6875H32.4373V18.75C32.4373 18.6008 32.4966 18.4577 32.6021 18.3523C32.7076 18.2468 32.8506 18.1875 32.9998 18.1875C33.149 18.1875 33.2921 18.2468 33.3976 18.3523C33.5031 18.4577 33.5623 18.6008 33.5623 18.75V19.6875H34.4998C34.649 19.6875 34.7921 19.7468 34.8976 19.8523C35.0031 19.9577 35.0623 20.1008 35.0623 20.25Z" fill="#F4F6F6"/>
</g>
</g>
<path d="M0.25 16C0.25 7.30151 7.30152 0.25 16 0.25H32C40.6985 0.25 47.75 7.30152 47.75 16V32C47.75 40.6985 40.6985 47.75 32 47.75H16C7.30151 47.75 0.25 40.6985 0.25 32V16Z" stroke="#C5C9C8" stroke-width="0.5"/>
<defs>
<filter id="filter0_d_101_1341" x="0.799805" y="4.79999" width="46.4" height="46.4" filterUnits="userSpaceOnUse" color-interpolation-filters="sRGB">
<feFlood flood-opacity="0" result="BackgroundImageFix"/>
<feColorMatrix in="SourceAlpha" type="matrix" values="0 0 0 0 0 0 0 0 0 0 0 0 0 0 0 0 0 0 127 0" result="hardAlpha"/>
<feOffset dy="4"/>
<feGaussianBlur stdDeviation="2"/>
<feComposite in2="hardAlpha" operator="out"/>
<feColorMatrix type="matrix" values="0 0 0 0 0.0156863 0 0 0 0 0.12549 0 0 0 0 0.101961 0 0 0 0.25 0"/>
<feBlend mode="normal" in2="BackgroundImageFix" result="effect1_dropShadow_101_1341"/>
<feBlend mode="normal" in="SourceGraphic" in2="effect1_dropShadow_101_1341" result="shape"/>
</filter>
<clipPath id="clip0_101_1341">
<path d="M0 16C0 7.16344 7.16344 0 16 0H32C40.8366 0 48 7.16344 48 16V32C48 40.8366 40.8366 48 32 48H16C7.16344 48 0 40.8366 0 32V16Z" fill="white"/>
</clipPath>
</defs>
</svg>
