<svg width="17" height="16" viewBox="0 0 17 16" fill="none" xmlns="http://www.w3.org/2000/svg">
<path d="M14.3538 8.35354L9.85375 12.8535C9.75993 12.9474 9.63268 13.0001 9.5 13.0001C9.36732 13.0001 9.24007 12.9474 9.14625 12.8535C9.05243 12.7597 8.99972 12.6325 8.99972 12.4998C8.99972 12.3671 9.05243 12.2399 9.14625 12.146L12.7931 8.49979H3C2.86739 8.49979 2.74021 8.44711 2.64645 8.35334C2.55268 8.25958 2.5 8.1324 2.5 7.99979C2.5 7.86718 2.55268 7.74001 2.64645 7.64624C2.74021 7.55247 2.86739 7.49979 3 7.49979H12.7931L9.14625 3.85354C9.05243 3.75972 8.99972 3.63247 8.99972 3.49979C8.99972 3.36711 9.05243 3.23986 9.14625 3.14604C9.24007 3.05222 9.36732 2.99951 9.5 2.99951C9.63268 2.99951 9.75993 3.05222 9.85375 3.14604L14.3538 7.64604C14.4002 7.69248 14.4371 7.74762 14.4623 7.80832C14.4874 7.86902 14.5004 7.93408 14.5004 7.99979C14.5004 8.0655 14.4874 8.13056 14.4623 8.19126C14.4371 8.25196 14.4002 8.3071 14.3538 8.35354Z" fill="#EFF0F0"/>
</svg>
