<svg width="119" height="32" viewBox="0 0 119 32" fill="none" xmlns="http://www.w3.org/2000/svg">
<path d="M9.18731 2.44968C10.9668 1.71266 12.874 1.33325 14.8 1.33325V8.66659C13.837 8.66659 12.8834 8.85625 11.9937 9.22484C11.1039 9.59335 10.2955 10.1335 9.61457 10.8145C8.93361 11.4954 8.39346 12.3038 8.02495 13.1936C7.65636 14.0833 7.4667 15.0369 7.4667 15.9999H0.133362C0.133362 14.0739 0.512767 12.1666 1.24979 10.3872C1.98689 8.60775 3.0672 6.99098 4.4291 5.62899C5.79109 4.26709 7.40786 3.18678 9.18731 2.44968Z" fill="#5F6766"/>
<path opacity="0.8" d="M0.133362 16C0.133362 17.926 0.512767 19.8333 1.24979 21.6127C1.98689 23.3922 3.0672 25.0089 4.4291 26.3709C5.79109 27.7328 7.40786 28.8131 9.18731 29.5502C10.9667 30.2873 12.874 30.6667 14.8 30.6667C16.7261 30.6667 18.6333 30.2873 20.4128 29.5502C22.1922 28.8131 23.809 27.7328 25.171 26.3709C26.5329 25.0089 27.6132 23.3922 28.3503 21.6127C29.0873 19.8333 29.4667 17.926 29.4667 16H22.1334C22.1334 16.9631 21.9437 17.9166 21.5751 18.8064C21.2066 19.6961 20.6664 20.5045 19.9855 21.1855C19.3045 21.8664 18.4961 22.4066 17.6064 22.7751C16.7167 23.1437 15.7631 23.3333 14.8 23.3333C13.837 23.3333 12.8834 23.1437 11.9937 22.7751C11.1039 22.4066 10.2955 21.8664 9.61457 21.1855C8.93361 20.5045 8.39346 19.6961 8.02495 18.8064C7.65636 17.9166 7.4667 16.9631 7.4667 16H0.133362Z" fill="#5F6766"/>
<path opacity="0.8" d="M14.8 11.3333C12.2227 11.3333 10.1334 13.4226 10.1334 15.9999H19.4667C19.4667 13.4226 17.3774 11.3333 14.8 11.3333Z" fill="#5F6766"/>
<path d="M14.8 20.6667C12.2227 20.6667 10.1334 18.5774 10.1334 16.0001H19.4667C19.4667 18.5774 17.3774 20.6667 14.8 20.6667Z" fill="#5F6766"/>
<path d="M44.6779 12.9347C44.6248 12.4 44.3973 11.9846 43.9951 11.6885C43.593 11.3924 43.0472 11.2443 42.3578 11.2443C41.8894 11.2443 41.4938 11.3106 41.1712 11.4432C40.8486 11.5714 40.6012 11.7503 40.4288 11.9801C40.2609 12.2099 40.1769 12.4707 40.1769 12.7623C40.1681 13.0054 40.2189 13.2175 40.3294 13.3987C40.4443 13.5799 40.6012 13.7368 40.8 13.8693C40.9989 13.9975 41.2287 14.1102 41.4894 14.2074C41.7502 14.3002 42.0286 14.3798 42.3247 14.4461L43.5444 14.7377C44.1365 14.8703 44.6801 15.0471 45.175 15.268C45.67 15.489 46.0986 15.7608 46.461 16.0834C46.8234 16.406 47.104 16.786 47.3029 17.2235C47.5062 17.661 47.61 18.1626 47.6144 18.7283C47.61 19.5591 47.3979 20.2794 46.9781 20.8892C46.5627 21.4947 45.9617 21.9653 45.175 22.3012C44.3928 22.6326 43.4493 22.7983 42.3445 22.7983C41.2486 22.7983 40.294 22.6304 39.4809 22.2945C38.6722 21.9587 38.0403 21.4615 37.5851 20.8031C37.1343 20.1402 36.8979 19.3204 36.8758 18.3438H39.6533C39.6842 18.799 39.8146 19.179 40.0444 19.4839C40.2786 19.7844 40.5901 20.012 40.979 20.1667C41.3723 20.3169 41.8165 20.3921 42.3114 20.3921C42.7975 20.3921 43.2195 20.3214 43.5775 20.18C43.9399 20.0385 44.2205 19.8419 44.4194 19.59C44.6182 19.3381 44.7177 19.0486 44.7177 18.7216C44.7177 18.4167 44.6271 18.1604 44.4459 17.9527C44.2691 17.745 44.0084 17.5682 43.6637 17.4224C43.3234 17.2765 42.9058 17.144 42.4108 17.0247L40.9326 16.6534C39.788 16.375 38.8843 15.9397 38.2214 15.3476C37.5586 14.7554 37.2293 13.9577 37.2337 12.9546C37.2293 12.1326 37.4481 11.4145 37.89 10.8002C38.3363 10.186 38.9484 9.70647 39.7262 9.36177C40.5039 9.01707 41.3878 8.84473 42.3777 8.84473C43.3853 8.84473 44.2647 9.01707 45.0159 9.36177C45.7716 9.70647 46.3594 10.186 46.7792 10.8002C47.199 11.4145 47.4156 12.126 47.4288 12.9347H44.6779Z" fill="#5F6766"/>
<path d="M54.1322 22.805C53.0848 22.805 52.1833 22.5928 51.4276 22.1686C50.6764 21.7399 50.0975 21.1345 49.6909 20.3523C49.2843 19.5657 49.081 18.6354 49.081 17.5616C49.081 16.5142 49.2843 15.595 49.6909 14.804C50.0975 14.013 50.6697 13.3965 51.4078 12.9546C52.1502 12.5127 53.0208 12.2917 54.0195 12.2917C54.6912 12.2917 55.3165 12.4 55.8954 12.6165C56.4788 12.8286 56.987 13.149 57.4201 13.5777C57.8576 14.0063 58.1978 14.5455 58.4409 15.1951C58.684 15.8403 58.8055 16.596 58.8055 17.4622V18.2377H50.2079V16.4877H56.1473C56.1473 16.0812 56.059 15.721 55.8822 15.4072C55.7054 15.0935 55.4602 14.8482 55.1464 14.6714C54.837 14.4902 54.4769 14.3997 54.0659 14.3997C53.6372 14.3997 53.2572 14.4991 52.9257 14.6979C52.5987 14.8924 52.3424 15.1553 52.1568 15.4868C51.9712 15.8138 51.8762 16.1784 51.8718 16.5805V18.2443C51.8718 18.7481 51.9646 19.1834 52.1502 19.5502C52.3402 19.917 52.6076 20.1998 52.9523 20.3987C53.297 20.5976 53.7057 20.697 54.1786 20.697C54.4924 20.697 54.7796 20.6528 55.0403 20.5644C55.3011 20.476 55.5242 20.3435 55.7098 20.1667C55.8954 19.9899 56.0369 19.7734 56.1341 19.5171L58.7458 19.6894C58.6132 20.3169 58.3415 20.8649 57.9305 21.3334C57.5239 21.7974 56.998 22.1598 56.3528 22.4205C55.712 22.6768 54.9718 22.805 54.1322 22.805Z" fill="#5F6766"/>
<path d="M65.2354 26.6364C64.3206 26.6364 63.5362 26.5104 62.8822 26.2586C62.2326 26.0111 61.7155 25.673 61.3311 25.2443C60.9466 24.8157 60.6969 24.334 60.582 23.7993L63.1937 23.4479C63.2733 23.6512 63.3992 23.8413 63.5716 24.018C63.7439 24.1948 63.9715 24.3362 64.2543 24.4423C64.5416 24.5527 64.8907 24.608 65.3017 24.608C65.916 24.608 66.422 24.4577 66.8197 24.1572C67.2218 23.8611 67.4229 23.364 67.4229 22.6658V20.8031H67.3036C67.1799 21.0859 66.9942 21.3532 66.7468 21.6051C66.4993 21.857 66.1811 22.0625 65.7922 22.2216C65.4033 22.3807 64.9393 22.4603 64.4002 22.4603C63.6357 22.4603 62.9396 22.2835 62.3121 21.93C61.689 21.572 61.1918 21.0262 60.8206 20.2926C60.4538 19.5546 60.2704 18.6222 60.2704 17.4953C60.2704 16.3419 60.4583 15.3785 60.8339 14.6051C61.2095 13.8318 61.7089 13.2529 62.332 12.8684C62.9595 12.4839 63.6467 12.2917 64.3936 12.2917C64.9636 12.2917 65.4409 12.3889 65.8254 12.5834C66.2098 12.7734 66.5192 13.012 66.7534 13.2993C66.992 13.5821 67.1754 13.8605 67.3036 14.1345H67.4096V12.4243H70.2136V22.7055C70.2136 23.5717 70.0015 24.2964 69.5773 24.8798C69.153 25.4631 68.5653 25.9006 67.814 26.1923C67.0672 26.4884 66.2076 26.6364 65.2354 26.6364ZM65.2951 20.339C65.7502 20.339 66.1347 20.2264 66.4485 20.001C66.7667 19.7712 67.0097 19.4442 67.1776 19.0199C67.35 18.5913 67.4362 18.0786 67.4362 17.482C67.4362 16.8854 67.3522 16.3684 67.1843 15.9309C67.0163 15.489 66.7733 15.1465 66.4551 14.9034C66.1369 14.6604 65.7502 14.5389 65.2951 14.5389C64.831 14.5389 64.44 14.6648 64.1218 14.9167C63.8036 15.1642 63.5627 15.5089 63.3992 15.9508C63.2357 16.3927 63.154 16.9031 63.154 17.482C63.154 18.0698 63.2357 18.578 63.3992 19.0067C63.5672 19.4309 63.808 19.7601 64.1218 19.9943C64.44 20.2241 64.831 20.339 65.2951 20.339Z" fill="#5F6766"/>
<path d="M72.4608 22.6061V12.4243H75.1521V14.2207H75.2714C75.4835 13.6241 75.837 13.1534 76.332 12.8087C76.8269 12.464 77.4191 12.2917 78.1085 12.2917C78.8067 12.2917 79.4011 12.4663 79.8917 12.8154C80.3822 13.1601 80.7092 13.6285 80.8727 14.2207H80.9788C81.1865 13.6373 81.5621 13.1711 82.1057 12.822C82.6536 12.4685 83.3011 12.2917 84.0479 12.2917C84.998 12.2917 85.7692 12.5944 86.3613 13.1998C86.9579 13.8009 87.2562 14.6538 87.2562 15.7586V22.6061H84.439V16.3154C84.439 15.7497 84.2888 15.3255 83.9882 15.0426C83.6877 14.7598 83.3121 14.6184 82.8613 14.6184C82.3487 14.6184 81.9488 14.7819 81.6615 15.1089C81.3743 15.4315 81.2307 15.858 81.2307 16.3883V22.6061H78.493V16.2557C78.493 15.7563 78.3494 15.3586 78.0621 15.0625C77.7793 14.7664 77.4059 14.6184 76.9418 14.6184C76.6281 14.6184 76.3453 14.6979 76.0934 14.857C75.8459 15.0117 75.6492 15.2305 75.5034 15.5133C75.3576 15.7917 75.2846 16.1187 75.2846 16.4943V22.6061H72.4608Z" fill="#5F6766"/>
<path d="M94.127 22.805C93.0796 22.805 92.1781 22.5928 91.4224 22.1686C90.6712 21.7399 90.0923 21.1345 89.6857 20.3523C89.2791 19.5657 89.0758 18.6354 89.0758 17.5616C89.0758 16.5142 89.2791 15.595 89.6857 14.804C90.0923 14.013 90.6645 13.3965 91.4025 12.9546C92.145 12.5127 93.0156 12.2917 94.0143 12.2917C94.686 12.2917 95.3113 12.4 95.8902 12.6165C96.4736 12.8286 96.9818 13.149 97.4149 13.5777C97.8524 14.0063 98.1926 14.5455 98.4357 15.1951C98.6787 15.8403 98.8003 16.596 98.8003 17.4622V18.2377H90.2027V16.4877H96.1421C96.1421 16.0812 96.0537 15.721 95.877 15.4072C95.7002 15.0935 95.4549 14.8482 95.1412 14.6714C94.8318 14.4902 94.4717 14.3997 94.0607 14.3997C93.632 14.3997 93.252 14.4991 92.9205 14.6979C92.5935 14.8924 92.3372 15.1553 92.1516 15.4868C91.966 15.8138 91.871 16.1784 91.8666 16.5805V18.2443C91.8666 18.7481 91.9594 19.1834 92.145 19.5502C92.335 19.917 92.6024 20.1998 92.9471 20.3987C93.2918 20.5976 93.7005 20.697 94.1734 20.697C94.4871 20.697 94.7744 20.6528 95.0351 20.5644C95.2959 20.476 95.519 20.3435 95.7046 20.1667C95.8902 19.9899 96.0317 19.7734 96.1289 19.5171L98.7406 19.6894C98.608 20.3169 98.3363 20.8649 97.9253 21.3334C97.5187 21.7974 96.9928 22.1598 96.3476 22.4205C95.7068 22.6768 94.9666 22.805 94.127 22.805Z" fill="#5F6766"/>
<path d="M103.467 16.7197V22.6061H100.643V12.4243H103.334V14.2207H103.454C103.679 13.6285 104.057 13.1601 104.587 12.8154C105.118 12.4663 105.76 12.2917 106.516 12.2917C107.223 12.2917 107.84 12.4464 108.366 12.7557C108.891 13.0651 109.3 13.507 109.592 14.0815C109.884 14.6515 110.029 15.3321 110.029 16.1231V22.6061H107.206V16.6269C107.21 16.0038 107.051 15.5177 106.728 15.1686C106.406 14.8151 105.962 14.6383 105.396 14.6383C105.016 14.6383 104.68 14.72 104.388 14.8836C104.101 15.0471 103.876 15.2857 103.712 15.5995C103.553 15.9088 103.471 16.2822 103.467 16.7197Z" fill="#5F6766"/>
<path d="M117.671 12.4243V14.5455H111.539V12.4243H117.671ZM112.931 9.98488H115.755V19.4773C115.755 19.738 115.795 19.9413 115.874 20.0872C115.954 20.2286 116.064 20.328 116.206 20.3854C116.352 20.4429 116.52 20.4716 116.71 20.4716C116.842 20.4716 116.975 20.4606 117.107 20.4385C117.24 20.412 117.342 20.3921 117.412 20.3788L117.856 22.4801C117.715 22.5243 117.516 22.5752 117.26 22.6326C117.003 22.6945 116.692 22.732 116.325 22.7453C115.645 22.7718 115.048 22.6812 114.535 22.4735C114.027 22.2658 113.632 21.9432 113.349 21.5057C113.066 21.0682 112.927 20.5158 112.931 19.8485V9.98488Z" fill="#5F6766"/>
</svg>
