<svg width="80" height="80" viewBox="0 0 80 80" fill="none" xmlns="http://www.w3.org/2000/svg">
<g filter="url(#filter0_d_1_1784)">
<path d="M16 28C16 19.1634 23.1634 12 32 12H48C56.8366 12 64 19.1634 64 28V44C64 52.8366 56.8366 60 48 60H32C23.1634 60 16 52.8366 16 44V28Z" fill="#EFF0F0" shape-rendering="crispEdges"/>
<path d="M16.0524 28C16.0524 19.1924 23.1924 12.0524 32 12.0524H48C56.8076 12.0524 63.9476 19.1924 63.9476 28V44C63.9476 52.8076 56.8076 59.9476 48 59.9476H32C23.1924 59.9476 16.0524 52.8076 16.0524 44V28Z" stroke="#C5C9C8" stroke-width="0.104804" shape-rendering="crispEdges"/>
<g filter="url(#filter1_d_1_1784)">
<path d="M20.7998 28.8C20.7998 22.1726 26.1724 16.8 32.7998 16.8H47.1998C53.8272 16.8 59.1998 22.1726 59.1998 28.8V43.2C59.1998 49.8274 53.8272 55.2 47.1998 55.2H32.7998C26.1724 55.2 20.7998 49.8274 20.7998 43.2V28.8Z" fill="#2A3735"/>
<g clip-path="url(#clip0_1_1784)">
<path d="M43.4077 26.7964C43.4077 26.7964 43.1377 26.8735 42.694 27.0084C42.6169 26.7578 42.5012 26.4687 42.3469 26.1602C41.8454 25.1964 41.0932 24.6759 40.2059 24.6759C40.1481 24.6759 40.0902 24.6759 40.0131 24.6952C39.9938 24.6566 39.9552 24.6373 39.9359 24.5988C39.5502 24.1747 39.0487 23.9819 38.4508 24.0012C37.2935 24.0397 36.1362 24.8687 35.2104 26.353C34.5547 27.394 34.0532 28.7048 33.9182 29.7265C32.5873 30.1313 31.6615 30.4205 31.6422 30.4397C30.9671 30.6518 30.9479 30.6711 30.8707 31.3072C30.755 31.7891 28.9998 45.3795 28.9998 45.3795L43.5813 47.9048V26.7578C43.5041 26.7771 43.4463 26.7771 43.4077 26.7964ZM40.0324 27.8373C39.2608 28.0687 38.4122 28.3385 37.5828 28.5891C37.8143 27.6831 38.2772 26.7771 38.8172 26.1795C39.0294 25.9675 39.3187 25.7169 39.6466 25.5626C39.9745 26.2566 40.0516 27.2012 40.0324 27.8373ZM38.47 24.7723C38.7401 24.7723 38.9715 24.8301 39.1644 24.9458C38.8558 25.1 38.5472 25.3506 38.2579 25.6397C37.525 26.4301 36.9656 27.6638 36.7342 28.8397C36.0398 29.0518 35.3454 29.2638 34.709 29.4566C35.114 27.6253 36.6763 24.8301 38.47 24.7723ZM36.2134 35.3747C36.2905 36.6084 39.5502 36.8783 39.743 39.7891C39.878 42.0831 38.5279 43.6446 36.5799 43.7602C34.2268 43.9144 32.9345 42.5265 32.9345 42.5265L33.436 40.406C33.436 40.406 34.7282 41.3891 35.7698 41.312C36.4448 41.2735 36.6956 40.7144 36.6763 40.3289C36.5799 38.7096 33.9182 38.806 33.7446 36.1458C33.5903 33.9289 35.0561 31.6735 38.2965 31.4614C39.5502 31.3843 40.1867 31.6928 40.1867 31.6928L39.4537 34.4687C39.4537 34.4687 38.6244 34.0831 37.6407 34.1602C36.2134 34.2566 36.1941 35.1626 36.2134 35.3747ZM40.8039 27.606C40.8039 27.0277 40.7267 26.1988 40.4567 25.5048C41.3439 25.6783 41.7682 26.6614 41.9611 27.259C41.6139 27.3554 41.2282 27.4711 40.8039 27.606Z" fill="#F4F6F6"/>
<path d="M44.0635 47.8277L50.1198 46.3241C50.1198 46.3241 47.516 28.7241 47.4967 28.6084C47.4774 28.4927 47.381 28.4156 47.2845 28.4156C47.1881 28.4156 45.4908 28.3771 45.4908 28.3771C45.4908 28.3771 44.4492 27.3747 44.0635 26.9891V47.8277Z" fill="#F4F6F6"/>
</g>
</g>
</g>
<defs>
<filter id="filter0_d_1_1784" x="0" y="0" width="80" height="80" filterUnits="userSpaceOnUse" color-interpolation-filters="sRGB">
<feFlood flood-opacity="0" result="BackgroundImageFix"/>
<feColorMatrix in="SourceAlpha" type="matrix" values="0 0 0 0 0 0 0 0 0 0 0 0 0 0 0 0 0 0 127 0" result="hardAlpha"/>
<feOffset dy="4"/>
<feGaussianBlur stdDeviation="8"/>
<feComposite in2="hardAlpha" operator="out"/>
<feColorMatrix type="matrix" values="0 0 0 0 0.101961 0 0 0 0 0.14902 0 0 0 0 0.145098 0 0 0 0.15 0"/>
<feBlend mode="normal" in2="BackgroundImageFix" result="effect1_dropShadow_1_1784"/>
<feBlend mode="normal" in="SourceGraphic" in2="effect1_dropShadow_1_1784" result="shape"/>
</filter>
<filter id="filter1_d_1_1784" x="16.7998" y="16.8" width="46.4" height="46.4" filterUnits="userSpaceOnUse" color-interpolation-filters="sRGB">
<feFlood flood-opacity="0" result="BackgroundImageFix"/>
<feColorMatrix in="SourceAlpha" type="matrix" values="0 0 0 0 0 0 0 0 0 0 0 0 0 0 0 0 0 0 127 0" result="hardAlpha"/>
<feOffset dy="4"/>
<feGaussianBlur stdDeviation="2"/>
<feComposite in2="hardAlpha" operator="out"/>
<feColorMatrix type="matrix" values="0 0 0 0 0.0156863 0 0 0 0 0.12549 0 0 0 0 0.101961 0 0 0 0.25 0"/>
<feBlend mode="normal" in2="BackgroundImageFix" result="effect1_dropShadow_1_1784"/>
<feBlend mode="normal" in="SourceGraphic" in2="effect1_dropShadow_1_1784" result="shape"/>
</filter>
<clipPath id="clip0_1_1784">
<rect width="24" height="24" fill="white" transform="translate(27.9998 24)"/>
</clipPath>
</defs>
</svg>
