<svg width="17" height="16" viewBox="0 0 17 16" fill="none" xmlns="http://www.w3.org/2000/svg">
<path d="M12.8488 8.06625L9.62313 6.87875L8.43563 3.65062C8.36531 3.45958 8.23807 3.2947 8.0711 3.17824C7.90413 3.06178 7.70545 2.99933 7.50188 2.99933C7.2983 2.99933 7.09962 3.06178 6.93265 3.17824C6.76568 3.2947 6.63845 3.45958 6.56813 3.65062L5.37938 6.875L2.15125 8.0625C1.96021 8.13282 1.79533 8.26005 1.67887 8.42702C1.56241 8.594 1.49996 8.79267 1.49996 8.99625C1.49996 9.19983 1.56241 9.3985 1.67887 9.56548C1.79533 9.73245 1.96021 9.85968 2.15125 9.93L5.375 11.125L6.5625 14.3512C6.63283 14.5423 6.76006 14.7072 6.92703 14.8236C7.094 14.9401 7.29268 15.0025 7.49625 15.0025C7.69983 15.0025 7.89851 14.9401 8.06548 14.8236C8.23245 14.7072 8.35968 14.5423 8.43 14.3512L9.6175 11.1256L12.8456 9.93812C13.0367 9.8678 13.2015 9.74057 13.318 9.5736C13.4345 9.40663 13.4969 9.20795 13.4969 9.00438C13.4969 8.8008 13.4345 8.60212 13.318 8.43515C13.2015 8.26818 13.0367 8.14095 12.8456 8.07063L12.8488 8.06625ZM9.27438 10.1875C9.13926 10.2371 9.01655 10.3155 8.91478 10.4173C8.813 10.519 8.7346 10.6418 8.685 10.7769L7.4975 13.9931L6.3125 10.7744C6.26287 10.64 6.18471 10.5179 6.0834 10.4166C5.98209 10.3153 5.86003 10.2371 5.72563 10.1875L2.50938 9L5.72563 7.8125C5.86003 7.76287 5.98209 7.68471 6.0834 7.5834C6.18471 7.48209 6.26287 7.36003 6.3125 7.22563L7.5 4.00938L8.6875 7.22563C8.7371 7.36074 8.8155 7.48345 8.91728 7.58523C9.01905 7.687 9.14176 7.76541 9.27688 7.815L12.4931 9.0025L9.27438 10.1875ZM9.5 2.5C9.5 2.36739 9.55268 2.24021 9.64645 2.14645C9.74022 2.05268 9.86739 2 10 2H11V1C11 0.867392 11.0527 0.740215 11.1464 0.646447C11.2402 0.552678 11.3674 0.5 11.5 0.5C11.6326 0.5 11.7598 0.552678 11.8536 0.646447C11.9473 0.740215 12 0.867392 12 1V2H13C13.1326 2 13.2598 2.05268 13.3536 2.14645C13.4473 2.24021 13.5 2.36739 13.5 2.5C13.5 2.63261 13.4473 2.75979 13.3536 2.85355C13.2598 2.94732 13.1326 3 13 3H12V4C12 4.13261 11.9473 4.25979 11.8536 4.35355C11.7598 4.44732 11.6326 4.5 11.5 4.5C11.3674 4.5 11.2402 4.44732 11.1464 4.35355C11.0527 4.25979 11 4.13261 11 4V3H10C9.86739 3 9.74022 2.94732 9.64645 2.85355C9.55268 2.75979 9.5 2.63261 9.5 2.5ZM16 5.5C16 5.63261 15.9473 5.75979 15.8536 5.85355C15.7598 5.94732 15.6326 6 15.5 6H15V6.5C15 6.63261 14.9473 6.75979 14.8536 6.85355C14.7598 6.94732 14.6326 7 14.5 7C14.3674 7 14.2402 6.94732 14.1464 6.85355C14.0527 6.75979 14 6.63261 14 6.5V6H13.5C13.3674 6 13.2402 5.94732 13.1464 5.85355C13.0527 5.75979 13 5.63261 13 5.5C13 5.36739 13.0527 5.24021 13.1464 5.14645C13.2402 5.05268 13.3674 5 13.5 5H14V4.5C14 4.36739 14.0527 4.24021 14.1464 4.14645C14.2402 4.05268 14.3674 4 14.5 4C14.6326 4 14.7598 4.05268 14.8536 4.14645C14.9473 4.24021 15 4.36739 15 4.5V5H15.5C15.6326 5 15.7598 5.05268 15.8536 5.14645C15.9473 5.24021 16 5.36739 16 5.5Z" fill="#F4F6F6"/>
</svg>
