<svg width="112" height="32" viewBox="0 0 112 32" fill="none" xmlns="http://www.w3.org/2000/svg">
<circle cx="15.2" cy="16.1667" r="13.6667" stroke="#5F6766" stroke-width="2"/>
<path d="M20.6211 21.5878C17.8615 24.3474 14.7352 26.1489 11.9509 26.8648C9.14155 27.5872 6.87713 27.1714 5.53619 25.8304C4.19526 24.4895 3.7794 22.2251 4.50181 19.4157C5.21776 16.6314 7.01924 13.5051 9.77883 10.7455C12.5384 7.98589 15.6648 6.18441 18.449 5.46847C21.2584 4.74605 23.5228 5.16191 24.8638 6.50285C26.2047 7.84378 26.6206 10.1082 25.8982 12.9176C25.1822 15.7018 23.3807 18.8282 20.6211 21.5878Z" stroke="#5F6766" stroke-width="2"/>
<path d="M20.621 10.7456C23.3806 13.5052 25.1821 16.6315 25.898 19.4158C26.6205 22.2251 26.2046 24.4896 24.8637 25.8305C23.5227 27.1714 21.2583 27.5873 18.4489 26.8649C15.6647 26.1489 12.5383 24.3475 9.77872 21.5879C7.01912 18.8283 5.21765 15.7019 4.5017 12.9177C3.77928 10.1083 4.19514 7.84386 5.53608 6.50292C6.87702 5.16198 9.14144 4.74612 11.9508 5.46854C14.7351 6.18449 17.8614 7.98596 20.621 10.7456Z" stroke="#5F6766" stroke-width="2"/>
<path d="M42.4333 22.8268C45.5733 22.8268 47.6933 21.1868 47.6933 18.5668C47.6933 13.0268 40.3333 15.3868 40.3333 12.4668C40.3333 11.6468 41.0733 11.0868 42.2533 11.0868C43.5933 11.0868 44.4333 11.8068 44.5333 12.9068H47.3933C47.3133 10.2468 45.2733 8.50679 42.2533 8.50679C39.4133 8.50679 37.4133 10.1468 37.4133 12.4668C37.4133 17.9668 44.6733 15.8668 44.6733 18.6068C44.6733 19.6668 43.7733 20.2268 42.4333 20.2268C40.9533 20.2268 40.0133 19.3268 39.8933 17.9068H37.0133C37.1333 20.8868 39.2533 22.8268 42.4333 22.8268Z" fill="#5F6766"/>
<path d="M48.3735 26.7468H51.1535V21.7668C51.6935 22.4468 52.6735 22.8268 53.8135 22.8268C56.7135 22.8268 58.6735 20.7668 58.6735 17.6268C58.6735 14.4868 56.8735 12.4268 54.0535 12.4268C52.7535 12.4268 51.7535 12.9068 51.1535 13.6868V12.5868H48.3735V26.7468ZM53.4735 20.4268C51.9735 20.4268 50.9935 19.3068 50.9935 17.6268C50.9935 15.9268 51.9735 14.8068 53.4735 14.8068C54.9335 14.8068 55.9335 15.9268 55.9335 17.6268C55.9335 19.3068 54.9335 20.4268 53.4735 20.4268Z" fill="#5F6766"/>
<path d="M59.3461 22.6668H62.1261V17.1468C62.1261 15.8468 62.9861 14.9068 64.2061 14.9068C65.3661 14.9068 66.1661 15.7868 66.1661 17.0068V22.6668H68.9462V16.3868C68.9462 14.0668 67.4661 12.4268 65.2061 12.4268C63.8061 12.4268 62.7061 13.0068 62.1261 13.9868V8.20679H59.3461V22.6668Z" fill="#5F6766"/>
<path d="M76.723 19.2468C76.503 20.1068 75.763 20.5468 74.643 20.5468C73.243 20.5468 72.343 19.6668 72.143 18.2468H79.383C79.403 18.0268 79.423 17.7268 79.423 17.3468C79.423 15.0468 78.003 12.4268 74.443 12.4268C71.023 12.4268 69.463 15.0468 69.463 17.6068C69.463 20.1468 71.223 22.8268 74.643 22.8268C77.123 22.8268 79.043 21.4268 79.443 19.2468H76.723ZM74.443 14.4668C75.783 14.4668 76.563 15.3668 76.643 16.4868H72.183C72.423 15.0868 73.183 14.4668 74.443 14.4668Z" fill="#5F6766"/>
<path d="M86.714 14.9068V12.5868H85.2796C84.0596 12.5868 83.2996 13.0068 82.7596 14.2668V12.5868H79.9596V22.6668H82.7596V17.7668C82.7596 16.0468 83.3796 14.9068 84.7596 14.9068H86.714Z" fill="#5F6766"/>
<path d="M96.314 12.5868H93.514V18.1068C93.514 19.3868 92.654 20.3468 91.434 20.3468C90.294 20.3468 89.494 19.4668 89.494 18.2468V12.5868H86.714V18.8668C86.714 21.1668 88.194 22.8268 90.454 22.8268C91.834 22.8268 92.954 22.2268 93.514 21.2668V22.6668H96.314V12.5868Z" fill="#5F6766"/>
<path d="M97.5141 22.6668H100.294V8.20679H97.5141V22.6668Z" fill="#5F6766"/>
<path d="M108.231 19.2468C108.011 20.1068 107.271 20.5468 106.151 20.5468C104.751 20.5468 103.851 19.6668 103.651 18.2468H110.891C110.911 18.0268 110.931 17.7268 110.931 17.3468C110.931 15.0468 109.511 12.4268 105.951 12.4268C102.531 12.4268 100.971 15.0468 100.971 17.6068C100.971 20.1468 102.731 22.8268 106.151 22.8268C108.631 22.8268 110.551 21.4268 110.951 19.2468H108.231ZM105.951 14.4668C107.291 14.4668 108.071 15.3668 108.151 16.4868H103.691C103.931 15.0868 104.691 14.4668 105.951 14.4668Z" fill="#5F6766"/>
</svg>
