<svg width="80" height="80" viewBox="0 0 80 80" fill="none" xmlns="http://www.w3.org/2000/svg">
<g filter="url(#filter0_d_1_1777)">
<path d="M16 28C16 19.1634 23.1634 12 32 12H48C56.8366 12 64 19.1634 64 28V44C64 52.8366 56.8366 60 48 60H32C23.1634 60 16 52.8366 16 44V28Z" fill="#EFF0F0" shape-rendering="crispEdges"/>
<path d="M16.0524 28C16.0524 19.1924 23.1924 12.0524 32 12.0524H48C56.8076 12.0524 63.9476 19.1924 63.9476 28V44C63.9476 52.8076 56.8076 59.9476 48 59.9476H32C23.1924 59.9476 16.0524 52.8076 16.0524 44V28Z" stroke="#C5C9C8" stroke-width="0.104804" shape-rendering="crispEdges"/>
<g filter="url(#filter1_d_1_1777)">
<path d="M20.7998 28.8C20.7998 22.1726 26.1724 16.8 32.7998 16.8H47.1998C53.8272 16.8 59.1998 22.1726 59.1998 28.8V43.2C59.1998 49.8274 53.8272 55.2 47.1998 55.2H32.7998C26.1724 55.2 20.7998 49.8274 20.7998 43.2V28.8Z" fill="#2A3735"/>
<g clip-path="url(#clip0_1_1777)">
<path fill-rule="evenodd" clip-rule="evenodd" d="M47.7943 28.1946C45.7265 26.1356 42.9763 25.001 40.046 25C34.0079 25 29.0938 29.8864 29.0917 35.8927C29.0907 37.8128 29.5954 39.6869 30.554 41.3386L28.9998 46.984L34.8068 45.4692C36.4067 46.3373 38.2082 46.7943 40.0413 46.7949H40.046C46.083 46.7949 50.9977 41.9079 50.9998 35.9016C51.0008 32.9907 49.8626 30.2542 47.7943 28.1951V28.1946ZM40.046 44.9552H40.0423C38.4088 44.9547 36.8064 44.518 35.4082 43.6933L35.0757 43.4969L31.6297 44.3958L32.5493 41.0544L32.3329 40.7118C31.4217 39.2702 30.94 37.6039 30.9411 35.8933C30.9432 30.9013 35.0274 26.8397 40.0497 26.8397C42.4815 26.8407 44.7674 27.7835 46.4864 29.4952C48.2056 31.2064 49.1515 33.4817 49.1505 35.9006C49.1483 40.8931 45.0641 44.9547 40.046 44.9547V44.9552ZM45.0399 38.1743C44.7663 38.038 43.4207 37.3798 43.1696 37.2889C42.9185 37.198 42.7363 37.1526 42.554 37.4253C42.3718 37.698 41.8471 38.3112 41.6874 38.4924C41.5277 38.6742 41.368 38.6966 41.0944 38.5603C40.8208 38.424 39.9389 38.1367 38.8931 37.2095C38.0796 36.4876 37.5301 35.5966 37.3705 35.3239C37.2108 35.0513 37.3537 34.9039 37.4902 34.7687C37.6131 34.6465 37.7639 34.4506 37.9009 34.2918C38.0381 34.133 38.0832 34.0191 38.1746 33.8379C38.266 33.6561 38.2203 33.4973 38.1521 33.361C38.0837 33.2247 37.5365 31.8848 37.308 31.3401C37.0858 30.8094 36.86 30.8815 36.6924 30.8726C36.5327 30.8648 36.3505 30.8632 36.1677 30.8632C35.9849 30.8632 35.6887 30.9311 35.4376 31.2038C35.1866 31.4764 34.4796 32.135 34.4796 33.4743C34.4796 34.8136 35.4602 36.1085 35.5973 36.2903C35.7344 36.472 37.5275 39.2211 40.2729 40.4005C40.9258 40.681 41.4358 40.8486 41.8334 40.974C42.4889 41.1814 43.0856 41.1521 43.5572 41.0821C44.083 41.0038 45.1765 40.4235 45.4045 39.7878C45.6324 39.1521 45.6324 38.6068 45.5642 38.4934C45.4959 38.3801 45.3131 38.3116 45.0395 38.1753L45.0399 38.1743Z" fill="#F4F6F6"/>
</g>
</g>
</g>
<defs>
<filter id="filter0_d_1_1777" x="0" y="0" width="80" height="80" filterUnits="userSpaceOnUse" color-interpolation-filters="sRGB">
<feFlood flood-opacity="0" result="BackgroundImageFix"/>
<feColorMatrix in="SourceAlpha" type="matrix" values="0 0 0 0 0 0 0 0 0 0 0 0 0 0 0 0 0 0 127 0" result="hardAlpha"/>
<feOffset dy="4"/>
<feGaussianBlur stdDeviation="8"/>
<feComposite in2="hardAlpha" operator="out"/>
<feColorMatrix type="matrix" values="0 0 0 0 0.101961 0 0 0 0 0.14902 0 0 0 0 0.145098 0 0 0 0.15 0"/>
<feBlend mode="normal" in2="BackgroundImageFix" result="effect1_dropShadow_1_1777"/>
<feBlend mode="normal" in="SourceGraphic" in2="effect1_dropShadow_1_1777" result="shape"/>
</filter>
<filter id="filter1_d_1_1777" x="16.7998" y="16.8" width="46.4" height="46.4" filterUnits="userSpaceOnUse" color-interpolation-filters="sRGB">
<feFlood flood-opacity="0" result="BackgroundImageFix"/>
<feColorMatrix in="SourceAlpha" type="matrix" values="0 0 0 0 0 0 0 0 0 0 0 0 0 0 0 0 0 0 127 0" result="hardAlpha"/>
<feOffset dy="4"/>
<feGaussianBlur stdDeviation="2"/>
<feComposite in2="hardAlpha" operator="out"/>
<feColorMatrix type="matrix" values="0 0 0 0 0.0156863 0 0 0 0 0.12549 0 0 0 0 0.101961 0 0 0 0.25 0"/>
<feBlend mode="normal" in2="BackgroundImageFix" result="effect1_dropShadow_1_1777"/>
<feBlend mode="normal" in="SourceGraphic" in2="effect1_dropShadow_1_1777" result="shape"/>
</filter>
<clipPath id="clip0_1_1777">
<rect width="22" height="22" fill="white" transform="translate(28.9998 25)"/>
</clipPath>
</defs>
</svg>
