<svg width="80" height="80" viewBox="0 0 80 80" fill="none" xmlns="http://www.w3.org/2000/svg">
<g filter="url(#filter0_d_1_1781)">
<path d="M16 28C16 19.1634 23.1634 12 32 12H48C56.8366 12 64 19.1634 64 28V44C64 52.8366 56.8366 60 48 60H32C23.1634 60 16 52.8366 16 44V28Z" fill="#EFF0F0" shape-rendering="crispEdges"/>
<path d="M16.0524 28C16.0524 19.1924 23.1924 12.0524 32 12.0524H48C56.8076 12.0524 63.9476 19.1924 63.9476 28V44C63.9476 52.8076 56.8076 59.9476 48 59.9476H32C23.1924 59.9476 16.0524 52.8076 16.0524 44V28Z" stroke="#C5C9C8" stroke-width="0.104804" shape-rendering="crispEdges"/>
<g filter="url(#filter1_d_1_1781)">
<path d="M20.7998 28.8C20.7998 22.1726 26.1724 16.8 32.7998 16.8H47.1998C53.8272 16.8 59.1998 22.1726 59.1998 28.8V43.2C59.1998 49.8274 53.8272 55.2 47.1998 55.2H32.7998C26.1724 55.2 20.7998 49.8274 20.7998 43.2V28.8Z" fill="#2A3735"/>
<path d="M39.9998 24C33.3724 24 27.9998 29.3726 27.9998 36C27.9998 42.6274 33.3724 48 39.9998 48C46.6272 48 51.9998 42.6274 51.9998 36C51.9998 29.3726 46.6272 24 39.9998 24ZM39.9998 24.72C41.5229 24.72 43.0001 25.0182 44.3903 25.6061C45.0585 25.8888 45.7031 26.2387 46.3061 26.646C46.9035 27.0496 47.4654 27.5132 47.976 28.0238C48.4866 28.5345 48.9502 29.0963 49.3538 29.6937C49.7612 30.2967 50.111 30.9413 50.3937 31.6095C50.9817 32.9997 51.2798 34.4769 51.2798 36C51.2798 37.5231 50.9817 39.0003 50.3937 40.3905C50.111 41.0587 49.7612 41.7033 49.3538 42.3063C48.9502 42.9037 48.4866 43.4655 47.976 43.9762C47.4654 44.4868 46.9035 44.9504 46.3061 45.354C45.7031 45.7614 45.0585 46.1112 44.3903 46.3939C43.0001 46.9819 41.5229 47.28 39.9998 47.28C38.4767 47.28 36.9995 46.9819 35.6094 46.3939C34.9411 46.1112 34.2965 45.7614 33.6935 45.354C33.0961 44.9504 32.5343 44.4868 32.0236 43.9762C31.513 43.4655 31.0495 42.9037 30.6458 42.3063C30.2385 41.7033 29.8886 41.0587 29.606 40.3905C29.018 39.0003 28.7198 37.5231 28.7198 36C28.7198 34.4769 29.018 32.9997 29.606 31.6095C29.8886 30.9413 30.2385 30.2967 30.6458 29.6937C31.0495 29.0963 31.513 28.5345 32.0236 28.0238C32.5343 27.5132 33.0961 27.0496 33.6935 26.646C34.2965 26.2387 34.9411 25.8888 35.6094 25.6061C36.9995 25.0182 38.4767 24.72 39.9998 24.72Z" fill="#F4F6F6"/>
<path d="M48.7752 31.2024C48.8181 31.5208 48.8424 31.8625 48.8424 32.2305C48.8424 33.2449 48.6523 34.3857 48.0817 35.8122L45.0275 44.6429C48.0005 42.9096 49.9998 39.6887 49.9998 35.9996C49.9998 34.261 49.5555 32.6265 48.7752 31.2024ZM40.1755 36.8743L37.1747 45.5925C38.0709 45.8562 39.0183 46 39.9998 46C41.1643 46 42.2815 45.799 43.3208 45.433C43.2941 45.3903 43.2694 45.3448 43.2491 45.2952L40.1755 36.8743ZM46.7507 35.4953C46.7507 34.259 46.3066 33.4034 45.9263 32.7375C45.4193 31.9134 44.944 31.2162 44.944 30.3921C44.944 29.473 45.641 28.6174 46.6233 28.6174C46.6677 28.6174 46.7097 28.6227 46.7528 28.6254C44.9736 26.9953 42.6032 26 39.9998 26C36.5061 26 33.4327 27.7926 31.6445 30.5071C31.8793 30.5145 32.1006 30.5192 32.2881 30.5192C33.3339 30.5192 34.9534 30.3921 34.9534 30.3921C35.4922 30.3605 35.5558 31.1525 35.0173 31.2162C35.0173 31.2162 34.4754 31.2796 33.8729 31.3112L37.5143 42.143L39.703 35.5798L38.1451 31.3112C37.6063 31.2796 37.0963 31.2162 37.0963 31.2162C36.5572 31.1844 36.6204 30.3605 37.1597 30.3921C37.1597 30.3921 38.8108 30.5192 39.7933 30.5192C40.8391 30.5192 42.4589 30.3921 42.4589 30.3921C42.9979 30.3605 43.0613 31.1525 42.5226 31.2162C42.5226 31.2162 41.9801 31.2796 41.3781 31.3112L44.992 42.0605L46.0236 38.7917C46.482 37.3631 46.7507 36.3509 46.7507 35.4953ZM29.9998 35.9996C29.9998 39.9576 32.2999 43.3785 35.636 44.9992L30.8657 31.93C30.3109 33.1735 29.9998 34.5498 29.9998 35.9996Z" fill="#F4F6F6"/>
</g>
</g>
<defs>
<filter id="filter0_d_1_1781" x="0" y="0" width="80" height="80" filterUnits="userSpaceOnUse" color-interpolation-filters="sRGB">
<feFlood flood-opacity="0" result="BackgroundImageFix"/>
<feColorMatrix in="SourceAlpha" type="matrix" values="0 0 0 0 0 0 0 0 0 0 0 0 0 0 0 0 0 0 127 0" result="hardAlpha"/>
<feOffset dy="4"/>
<feGaussianBlur stdDeviation="8"/>
<feComposite in2="hardAlpha" operator="out"/>
<feColorMatrix type="matrix" values="0 0 0 0 0.101961 0 0 0 0 0.14902 0 0 0 0 0.145098 0 0 0 0.15 0"/>
<feBlend mode="normal" in2="BackgroundImageFix" result="effect1_dropShadow_1_1781"/>
<feBlend mode="normal" in="SourceGraphic" in2="effect1_dropShadow_1_1781" result="shape"/>
</filter>
<filter id="filter1_d_1_1781" x="16.7998" y="16.8" width="46.4" height="46.4" filterUnits="userSpaceOnUse" color-interpolation-filters="sRGB">
<feFlood flood-opacity="0" result="BackgroundImageFix"/>
<feColorMatrix in="SourceAlpha" type="matrix" values="0 0 0 0 0 0 0 0 0 0 0 0 0 0 0 0 0 0 127 0" result="hardAlpha"/>
<feOffset dy="4"/>
<feGaussianBlur stdDeviation="2"/>
<feComposite in2="hardAlpha" operator="out"/>
<feColorMatrix type="matrix" values="0 0 0 0 0.0156863 0 0 0 0 0.12549 0 0 0 0 0.101961 0 0 0 0.25 0"/>
<feBlend mode="normal" in2="BackgroundImageFix" result="effect1_dropShadow_1_1781"/>
<feBlend mode="normal" in="SourceGraphic" in2="effect1_dropShadow_1_1781" result="shape"/>
</filter>
</defs>
</svg>
