<svg width="122" height="32" viewBox="0 0 122 32" fill="none" xmlns="http://www.w3.org/2000/svg">
<g clip-path="url(#clip0_1_4294)">
<path d="M18.5129 2.74788L15.6991 1.9939L13.3278 10.8437L11.187 2.85403L8.37303 3.60802L10.6861 12.2402L4.92483 6.47902L2.86492 8.53893L9.18427 14.8583L1.31453 12.7496L0.560547 15.5635L9.15923 17.8675C9.06079 17.4429 9.0087 17.0005 9.0087 16.5459C9.0087 13.3281 11.6172 10.7195 14.835 10.7195C18.0528 10.7195 20.6613 13.3281 20.6613 16.5459C20.6613 16.9975 20.6099 17.4372 20.5127 17.8593L28.3273 19.9532L29.0812 17.1394L20.4483 14.8262L28.3186 12.7174L27.5646 9.9035L18.9321 12.2165L24.6933 6.45537L22.6334 4.39546L16.4017 10.6272L18.5129 2.74788Z" fill="#5F6766"/>
<path d="M20.5044 17.8921C20.2632 18.9121 19.7539 19.8283 19.055 20.5624L24.7163 26.2239L26.7763 24.1639L20.5044 17.8921Z" fill="#5F6766"/>
<path d="M18.9979 20.6216C18.2906 21.344 17.3968 21.8831 16.3944 22.1609L18.4545 29.8491L21.2683 29.0951L18.9979 20.6216Z" fill="#5F6766"/>
<path d="M16.2893 22.189C15.8243 22.3086 15.3368 22.3721 14.8345 22.3721C14.2964 22.3721 13.7752 22.2992 13.2805 22.1626L11.2186 29.8578L14.0324 30.6117L16.2893 22.189Z" fill="#5F6766"/>
<path d="M13.181 22.1342C12.194 21.8426 11.3161 21.2966 10.6232 20.5722L4.94795 26.2475L7.00786 28.3074L13.181 22.1342Z" fill="#5F6766"/>
<path d="M10.5765 20.522C9.89549 19.793 9.39947 18.8889 9.16337 17.8847L1.32324 19.9855L2.07722 22.7993L10.5765 20.522Z" fill="#5F6766"/>
</g>
<path d="M46.0133 8.6062V18.7462L39.5133 8.6062H36.9133V22.6062H39.5133V12.5462L46.0133 22.6062H48.6133V8.6062H46.0133Z" fill="#5F6766"/>
<path d="M49.7849 11.2262H52.4649V8.6062H49.7849V11.2262ZM49.8249 22.6062V12.6062H52.4249V22.6062H49.8249Z" fill="#5F6766"/>
<path d="M63.6116 17.6062C63.6116 14.1462 61.1516 12.5062 58.5516 12.4862C55.9316 12.4662 53.5116 14.1462 53.5116 17.6062C53.5116 21.0662 55.9316 22.7462 58.5516 22.7262C60.9316 22.7062 62.5716 21.6062 63.3316 19.7862L61.3116 18.9462C60.6916 20.1862 59.7116 20.6262 58.5516 20.6462C57.5516 20.6662 56.4116 20.1862 56.1716 18.4062H63.5516C63.5916 18.1462 63.6116 17.8862 63.6116 17.6062ZM58.5516 14.5462C59.5516 14.5662 60.5716 15.1062 60.8916 16.5462H56.2116C56.5516 15.0862 57.5716 14.5262 58.5516 14.5462Z" fill="#5F6766"/>
<path d="M69.6204 14.4662V12.4862H67.9804V9.8062L65.3804 10.6062V12.4862H63.7404V14.4662H65.3804V19.6462C65.3804 21.6062 65.5404 22.6062 68.5804 22.6062H69.2804V20.3262H68.5804C68.1004 20.3262 67.9804 20.2462 67.9804 19.6462V14.4662H69.6204Z" fill="#5F6766"/>
<path d="M73.4838 20.4262L79.0038 14.7862V12.6062H70.7238V14.7862H76.0838L70.5638 20.4262V22.6062H79.0638V20.4262H73.4838Z" fill="#5F6766"/>
<path d="M79.996 19.7862L82.616 19.3862C82.796 20.3862 83.976 20.7662 84.696 20.7662C85.436 20.7662 86.716 20.6062 86.716 19.4062C86.716 17.0662 80.296 19.9862 80.296 15.5062C80.296 12.6262 83.636 12.4662 84.696 12.4662C85.696 12.4662 88.596 12.6262 89.196 14.9462L86.716 15.4662C86.496 14.4062 85.376 14.2062 84.776 14.2062C84.176 14.2062 82.896 14.3462 82.896 15.5062C82.896 17.8262 89.316 14.8662 89.316 19.4062C89.316 22.4662 85.796 22.7262 84.696 22.7262C83.696 22.7262 80.516 22.4662 79.996 19.7862Z" fill="#5F6766"/>
<path d="M92.6936 17.6062C92.6936 20.0462 93.9936 20.7862 95.3536 20.7662C96.5736 20.7462 97.4136 20.2462 97.9136 18.8462L100.054 19.8862C99.2736 21.9262 97.3736 22.7062 95.3536 22.7262C92.7336 22.7462 90.0936 21.0662 90.0936 17.6062C90.0936 14.1462 92.7336 12.4662 95.3536 12.4862C97.3736 12.5062 99.2736 13.2862 100.054 15.3262L97.9136 16.3662C97.4136 14.9662 96.5736 14.4662 95.3536 14.4462C93.9936 14.4262 92.6936 15.1662 92.6936 17.6062Z" fill="#5F6766"/>
<path d="M107.033 12.4462C105.693 12.4462 104.473 13.1462 103.693 14.6462V8.6062H101.093V22.6062H103.693V19.0662C103.693 14.4862 105.593 14.1062 106.293 14.1062C107.413 14.1062 107.573 15.2662 107.573 16.9662V22.6062H110.173V16.9662C110.173 14.8462 109.833 12.4462 107.033 12.4462Z" fill="#5F6766"/>
<path d="M121.151 17.6062C121.151 14.1462 118.691 12.5062 116.091 12.4862C113.471 12.4662 111.051 14.1462 111.051 17.6062C111.051 21.0662 113.471 22.7462 116.091 22.7262C118.471 22.7062 120.111 21.6062 120.871 19.7862L118.851 18.9462C118.231 20.1862 117.251 20.6262 116.091 20.6462C115.091 20.6662 113.951 20.1862 113.711 18.4062H121.091C121.131 18.1462 121.151 17.8862 121.151 17.6062ZM116.091 14.5462C117.091 14.5662 118.111 15.1062 118.431 16.5462H113.751C114.091 15.0862 115.111 14.5262 116.091 14.5462Z" fill="#5F6766"/>
<defs>
<clipPath id="clip0_1_4294">
<rect width="29.3333" height="29.3333" fill="white" transform="translate(0.333252 1.33325)"/>
</clipPath>
</defs>
</svg>
